<svg width="704" height="300" viewBox="0 0 704 300" fill="none" xmlns="http://www.w3.org/2000/svg">
<circle cx="629.347" cy="233.518" r="17.4028" transform="rotate(29.8236 629.347 233.518)" fill="#1E88E5"/>
<g clip-path="url(#clip0_506_1291)">
<path d="M626.267 238.071L627.234 238.626C627.234 238.626 627.545 238.761 627.786 238.685C628.008 238.616 628.162 238.336 628.162 238.336C628.162 238.336 628.886 237.028 629.598 237.182C630.299 237.335 630.235 239.214 630.725 240.232C631.095 241.001 631.612 241.175 631.612 241.175L633.79 242.384C633.79 242.384 634.96 242.962 634.934 241.766C634.932 241.668 634.998 240.93 634.393 238.987C633.759 236.952 633.824 237.261 636.702 236.021C638.456 235.267 639.317 234.685 639.391 234.268C639.461 233.871 638.68 233.539 638.68 233.539L636.242 232.16C636.242 232.16 636.076 232.032 635.895 232.035C635.72 232.039 635.531 232.173 635.531 232.173C635.531 232.173 634.558 232.977 633.545 233.554C631.408 234.773 630.919 234.621 630.807 234.406C630.548 233.904 631.112 233.159 631.439 232.589C632.461 230.806 633.157 230.218 632.47 229.569C632.242 229.353 632.072 229.2 631.4 228.805C630.537 228.298 629.795 227.889 629.263 227.854C628.908 227.831 628.522 228.011 628.642 228.103C628.791 228.216 629.111 228.502 629.153 228.875C629.209 229.357 628.763 230.114 628.763 230.114C628.763 230.114 627.704 232.295 627.076 232.281C626.645 232.272 626.404 231.649 626.395 229.426C626.391 228.288 626.558 227.129 626.558 227.129C626.558 227.129 626.588 226.912 626.513 226.744C626.423 226.54 626.225 226.379 626.225 226.379L623.906 225.068C623.906 225.068 623.553 224.879 623.339 224.957C623.149 225.026 623.094 225.363 623.094 225.363C623.094 225.363 622.477 230.634 623.302 233.943C624.06 236.977 626.267 238.071 626.267 238.071Z" fill="white"/>
</g>
<circle cx="680.312" cy="109.377" r="18.0401" transform="rotate(21.0265 680.312 109.377)" fill="#039BE5"/>
<g clip-path="url(#clip1_506_1291)">
<path d="M676.867 110.276L674.997 114.268C675.415 114.429 675.665 114.319 675.964 114.187L678.641 113.069L681.555 117.598C682.139 118.298 682.747 118.282 683.286 117.478L690.744 106.027L690.745 106.026C691.404 105.017 690.935 104.344 690.107 104.335L672.155 104.311C670.928 104.315 670.715 104.916 671.482 105.521L675.004 108.303L686.532 106.06C687.081 105.939 687.417 106.252 686.979 106.416L676.867 110.276Z" fill="white"/>
</g>
<circle cx="26.5187" cy="209.664" r="19.3544" transform="rotate(-30.6623 26.5187 209.664)" fill="#6F3FAA"/>
<path d="M31.8925 200.984L31.8807 200.964C31.266 200.339 30.3457 199.862 29.3493 199.592C28.1833 199.273 26.9151 199.232 25.9234 199.563L25.905 199.574C22.9856 200.626 20.2925 202.223 17.9688 204.279L17.9504 204.29C16.5275 205.612 15.7671 208.368 16.3144 210.192L16.3262 210.212C17.1474 212.704 18.5011 214.987 20.2932 216.903L20.3041 216.922C21.2578 217.888 22.9444 218.499 24.5014 218.548C25.0131 218.57 25.5253 218.518 26.0222 218.394L27.0737 220.167C27.1583 220.309 27.2831 220.422 27.4322 220.492C27.5812 220.562 27.7478 220.586 27.9107 220.561C28.0736 220.536 28.2254 220.464 28.3468 220.352C28.4681 220.241 28.5535 220.096 28.5922 219.936L29.2824 217.001C29.6841 216.792 30.0835 216.572 30.4725 216.341C31.8038 215.551 33.0577 214.637 34.2172 213.612L34.2356 213.601C35.653 212.28 36.415 209.523 35.8645 207.701L35.8536 207.682C35.0352 205.188 33.6835 202.902 31.8925 200.984ZM34.2424 208.191C34.5937 209.384 34.0144 211.472 33.0847 212.344C31.8521 213.435 30.5055 214.389 29.0681 215.191C29.0538 215.198 29.0414 215.209 29.0318 215.222C29.0222 215.234 29.0157 215.249 29.0128 215.265L28.4993 217.391L27.9515 219.651C27.9432 219.688 27.9239 219.721 27.8963 219.747C27.8687 219.773 27.834 219.79 27.7967 219.796C27.7593 219.802 27.7211 219.796 27.6869 219.78C27.6527 219.764 27.6242 219.738 27.605 219.705L25.8616 216.765C25.8476 216.741 25.8258 216.723 25.7999 216.714C25.774 216.705 25.7457 216.705 25.7199 216.714C25.4652 216.794 25.2011 216.839 24.9345 216.849C23.7369 216.903 22.2293 216.451 21.5186 215.734C19.8997 214.001 18.6763 211.938 17.933 209.686C17.5829 208.499 18.1716 206.409 19.0928 205.54C21.2507 203.631 23.7509 202.149 26.4609 201.171C27.1286 200.954 28.0685 201.003 28.9223 201.242C29.6217 201.434 30.2609 201.754 30.6595 202.147C32.2768 203.879 33.4992 205.941 34.2424 208.191Z" fill="white"/>
<path d="M31.693 209.909C31.7632 210.481 31.6444 211.06 31.3545 211.558C31.2529 211.696 31.1383 211.825 31.0124 211.941C30.8194 211.989 30.6432 212.048 30.4685 212.071C29.0397 212.308 27.5821 212.313 26.1517 212.086C25.7227 212.012 25.2994 211.909 24.8849 211.776C23.8526 211.433 22.8714 210.952 21.9678 210.347C21.5348 210.063 21.1242 209.748 20.7115 209.436C20.3359 209.151 20.3311 208.626 20.3977 208.208C20.4714 207.813 20.6279 207.438 20.8569 207.108C20.9345 206.987 21.0521 206.896 21.1893 206.853C21.3265 206.809 21.4745 206.815 21.6078 206.87C22.2597 207.077 22.8885 207.352 23.4841 207.688C23.6644 207.782 23.8017 207.941 23.8675 208.134C23.9333 208.326 23.9225 208.536 23.8375 208.721C23.7927 208.82 23.7524 208.926 23.722 209.025C23.6856 209.112 23.6646 209.204 23.6601 209.298C23.6591 209.384 23.678 209.469 23.7152 209.546C23.7525 209.623 23.8071 209.691 23.8748 209.744C24.6526 210.382 25.5035 210.794 26.4567 210.873C26.7789 210.899 27.103 210.888 27.4227 210.84C27.645 210.832 27.8614 210.767 28.0509 210.65C28.3611 210.412 28.2526 209.978 28.3728 209.65C28.4278 209.499 28.5299 209.37 28.6641 209.282C28.7983 209.194 28.9574 209.151 29.1177 209.161C29.4566 209.167 29.7981 209.198 30.1369 209.225C30.4688 209.246 30.7993 209.285 31.1271 209.342C31.2728 209.355 31.4091 209.419 31.5124 209.523C31.6158 209.626 31.6797 209.763 31.693 209.909Z" fill="white"/>
<path d="M24.0602 204.516L23.8642 204.632C23.9252 204.592 23.9929 204.556 24.0602 204.516Z" fill="#6F3FAA"/>
<path d="M30.1696 207.097C30.0165 207.188 29.8642 207.102 29.7691 206.966C29.583 206.697 29.4006 206.425 29.1971 206.169C28.8521 205.738 28.4207 205.384 27.9308 205.129C27.4239 204.862 26.8665 204.704 26.2948 204.666C25.723 204.628 25.1496 204.71 24.6116 204.907C24.3675 204.998 24.1369 205.122 23.9012 205.231C23.7512 205.299 23.5605 205.4 23.4263 205.243C23.4016 205.212 23.3839 205.176 23.3743 205.137C23.3647 205.099 23.3634 205.059 23.3706 205.02C23.3778 204.98 23.3932 204.943 23.4159 204.911C23.4386 204.878 23.4679 204.85 23.5021 204.83C23.5376 204.806 23.5744 204.784 23.6124 204.765C24.2851 204.373 25.044 204.154 25.8218 204.126C26.5996 204.098 27.3722 204.263 28.0713 204.605C28.6286 204.884 29.1246 205.272 29.53 205.746C29.7843 206.042 30.0073 206.369 30.2331 206.691C30.2579 206.721 30.2761 206.756 30.2864 206.793C30.2967 206.83 30.2989 206.87 30.2929 206.908C30.2869 206.947 30.2728 206.983 30.2516 207.016C30.2303 207.048 30.2024 207.076 30.1696 207.097Z" fill="white"/>
<path d="M28.9168 206.872C28.9429 206.918 28.9636 206.967 28.9784 207.018C28.9912 207.07 28.9877 207.125 28.9683 207.175C28.9488 207.225 28.9144 207.268 28.8697 207.298C28.825 207.328 28.7722 207.343 28.7185 207.342C28.6647 207.341 28.6126 207.323 28.5693 207.291C28.5158 207.24 28.4701 207.18 28.4337 207.115C28.2342 206.77 27.9651 206.471 27.6435 206.236C27.5729 206.187 27.4984 206.138 27.4211 206.095C26.9778 205.847 26.4715 205.735 25.965 205.772C25.663 205.801 25.3665 205.872 25.0845 205.984C24.9603 206.032 24.8406 206.089 24.7182 206.141C24.6878 206.157 24.6545 206.166 24.6202 206.169C24.586 206.172 24.5516 206.167 24.5191 206.156C24.4867 206.145 24.4569 206.127 24.4316 206.104C24.4062 206.081 24.386 206.052 24.372 206.021C24.3542 205.991 24.3429 205.958 24.339 205.923C24.3351 205.888 24.3385 205.853 24.3491 205.82C24.3597 205.787 24.3772 205.756 24.4004 205.73C24.4237 205.704 24.4522 205.683 24.484 205.669C24.944 205.42 25.4527 205.274 25.9749 205.24C26.6103 205.197 27.2435 205.354 27.7841 205.691C28.0946 205.891 28.3706 206.14 28.6016 206.428C28.6342 206.464 28.6649 206.502 28.6935 206.541C28.7557 206.628 28.8132 206.718 28.8881 206.827C28.8944 206.838 28.9041 206.851 28.9168 206.872Z" fill="#6F3FAA"/>
<path d="M27.7437 207.283C27.7581 207.327 27.7589 207.374 27.7462 207.419C27.7334 207.463 27.7077 207.503 27.6722 207.533L27.6385 207.553C27.5902 207.586 27.5326 207.602 27.4742 207.599C27.4158 207.596 27.3599 207.575 27.3149 207.537C27.2905 207.518 27.2687 207.495 27.2502 207.47C27.1811 207.372 27.105 207.279 27.0227 207.191C26.8561 207.014 26.6323 206.901 26.3908 206.872C26.2762 206.862 26.1608 206.872 26.0495 206.901C25.9077 206.937 25.786 207.022 25.6493 207.064C25.584 207.088 25.5117 207.086 25.4482 207.057C25.3846 207.029 25.335 206.976 25.3102 206.911C25.2881 206.847 25.2898 206.778 25.315 206.716C25.3402 206.654 25.3873 206.603 25.4473 206.573C26.1787 206.207 26.9022 206.234 27.4828 206.906C27.5381 206.968 27.5896 207.032 27.6372 207.1C27.6817 207.155 27.7176 207.217 27.7437 207.283Z" fill="white"/>
<g filter="url(#filter0_d_506_1291)">
<circle cx="49.8938" cy="36.894" r="15.6532" transform="rotate(36.5014 49.8938 36.894)" fill="#2CB742"/>
</g>
<g clip-path="url(#clip2_506_1291)">
<path fill-rule="evenodd" clip-rule="evenodd" d="M59.0749 34.8776C58.7312 32.5945 57.5184 30.5793 55.6575 29.201C51.8218 26.3626 46.398 27.1637 43.5669 30.9863C42.6618 32.2082 42.0993 33.6385 41.93 35.1409L38.2833 38.0041L42.686 39.7696C43.2936 41.0743 44.2224 42.2124 45.3868 43.0745L45.3897 43.0767C49.2249 45.9147 54.6493 45.1137 57.4804 41.2909C58.8526 39.4383 59.4188 37.1607 59.0749 34.8776ZM46.2563 41.9054L46.2539 41.9036C45.2164 41.1352 44.4043 40.104 43.9047 38.9217L43.786 38.6405L41.1734 37.5929L43.3318 35.8981L43.3556 35.5782C43.4558 34.232 43.935 32.9449 44.7415 31.8562C47.0946 28.6789 51.6027 28.0132 54.793 30.3741C56.3375 31.5178 57.3455 33.1928 57.6312 35.0905C57.9169 36.9881 57.4462 38.8812 56.3059 40.4211C53.9525 43.5985 49.4443 44.2645 46.2563 41.9054ZM52.6236 39.9358C52.514 39.7204 51.9693 38.6687 51.8527 38.4928C51.7362 38.3171 51.6415 38.2025 51.3974 38.2902C51.1531 38.3778 50.531 38.5216 50.344 38.5621C50.1569 38.6027 50.0449 38.5422 49.9352 38.3267C49.8254 38.1113 49.4007 37.5137 49.1734 36.4318C48.9965 35.5899 49.0675 34.7642 49.0944 34.5157C49.1215 34.2671 49.2847 34.2567 49.4324 34.2185C49.793 34.1248 50.1622 34.0201 50.3056 33.9474C50.4493 33.8746 50.4951 33.7519 50.5157 33.633C50.5365 33.5142 50.82 32.4039 50.932 31.9496C51.0407 31.5073 50.8637 31.447 50.7608 31.3626C50.6632 31.2826 50.548 31.1958 50.432 31.11C50.3161 31.0242 50.0957 30.9281 49.8078 30.9837C49.5201 31.0393 48.7608 31.1261 48.1296 31.9791C47.4984 32.832 47.5117 34.1171 47.513 34.297C47.5143 34.477 47.3583 37.0704 48.5471 39.1116C48.8297 39.5973 49.0747 39.9435 49.2682 40.2102C49.5871 40.6504 49.9798 40.9122 50.3125 41.0893C50.6835 41.2868 51.6514 41.4313 52.0959 41.1339C52.5403 40.8362 52.7971 40.4893 52.8071 40.3847C52.8172 40.2804 52.7332 40.1513 52.6236 39.9358Z" fill="white"/>
</g>
<circle cx="350.528" cy="154.532" r="0.620598" fill="#6A1E1E"/>
<circle cx="98.7231" cy="202.318" r="2.48239" fill="#3976F4"/>
<circle cx="554.705" cy="256.31" r="2.48239" fill="url(#paint0_linear_506_1291)"/>
<circle cx="540.431" cy="269.963" r="8.06777" fill="url(#paint1_linear_506_1291)"/>
<circle cx="670.482" cy="52.7534" r="2.48239" fill="url(#paint2_linear_506_1291)"/>
<circle cx="503.196" cy="20.4824" r="2.48239" fill="url(#paint3_linear_506_1291)"/>
<circle cx="485.819" cy="24.206" r="6.20598" fill="url(#paint4_linear_506_1291)"/>
<circle cx="178.002" cy="2.48239" r="2.48239" fill="url(#paint5_linear_506_1291)"/>
<circle cx="156.35" cy="275.618" r="17.7226" transform="rotate(-29.2016 156.35 275.618)" fill="#3976F4"/>
<g clip-path="url(#clip3_506_1291)">
<path d="M151.902 267.668C147.508 270.124 145.792 275.416 148.068 279.489C149.365 281.81 151.678 283.233 154.24 283.575L155.726 286.157C155.806 286.296 156.007 286.299 156.09 286.161L157.786 283.361C158.589 283.156 159.383 282.844 160.146 282.417C164.54 279.961 166.257 274.668 163.98 270.595C161.704 266.522 156.296 265.212 151.902 267.668ZM157.957 277.082L155.267 276.262C155.109 276.214 154.939 276.277 154.85 276.416L152.764 279.691C152.685 279.816 152.492 279.732 152.528 279.589L153.965 273.88C154.006 273.717 154.177 273.621 154.338 273.672L157.046 274.526C157.206 274.576 157.378 274.513 157.467 274.372L159.507 271.136C159.586 271.011 159.78 271.094 159.744 271.238L158.327 276.873C158.286 277.035 158.118 277.131 157.957 277.082Z" fill="white"/>
</g>
<rect x="153.118" y="188.401" width="10.5502" height="2.48239" transform="rotate(45 153.118 188.401)" fill="url(#paint6_linear_506_1291)"/>
<rect x="160.579" y="190.156" width="10.5502" height="2.48239" transform="rotate(135 160.579 190.156)" fill="url(#paint7_linear_506_1291)"/>
<rect x="222.04" y="27.186" width="10.5502" height="2.48239" transform="rotate(0.96992 222.04 27.186)" fill="#2CB742"/>
<rect x="228.624" y="23.2618" width="10.5502" height="2.48239" transform="rotate(90.9699 228.624 23.2618)" fill="#2CB742"/>
<rect x="539.695" y="185.883" width="10.5502" height="2.48239" transform="rotate(30 539.695 185.883)" fill="url(#paint8_linear_506_1291)"/>
<rect x="547.358" y="185.647" width="10.5502" height="2.48239" transform="rotate(120 547.358 185.647)" fill="url(#paint9_linear_506_1291)"/>
<defs>
<filter id="filter0_d_506_1291" x="1.23962" y="13.2397" width="97.3085" height="97.3085" filterUnits="userSpaceOnUse" color-interpolation-filters="sRGB">
<feFlood flood-opacity="0" result="BackgroundImageFix"/>
<feColorMatrix in="SourceAlpha" type="matrix" values="0 0 0 0 0 0 0 0 0 0 0 0 0 0 0 0 0 0 127 0" result="hardAlpha"/>
<feOffset dy="25"/>
<feGaussianBlur stdDeviation="16.5"/>
<feComposite in2="hardAlpha" operator="out"/>
<feColorMatrix type="matrix" values="0 0 0 0 0.503531 0 0 0 0 0.507706 0 0 0 0 0.545833 0 0 0 0.08 0"/>
<feBlend mode="normal" in2="BackgroundImageFix" result="effect1_dropShadow_506_1291"/>
<feBlend mode="normal" in="SourceGraphic" in2="effect1_dropShadow_506_1291" result="shape"/>
</filter>
<linearGradient id="paint0_linear_506_1291" x1="552.223" y1="258.792" x2="558.995" y2="256.958" gradientUnits="userSpaceOnUse">
<stop stop-color="#FF8045"/>
<stop offset="1" stop-color="#FDA556"/>
</linearGradient>
<linearGradient id="paint1_linear_506_1291" x1="549.862" y1="260.201" x2="529.05" y2="265.874" gradientUnits="userSpaceOnUse">
<stop stop-color="#F37CA6"/>
<stop offset="1" stop-color="#ED5D7D"/>
</linearGradient>
<linearGradient id="paint2_linear_506_1291" x1="673.145" y1="50.271" x2="667.12" y2="51.8265" gradientUnits="userSpaceOnUse">
<stop stop-color="#7F7EFF"/>
<stop offset="1" stop-color="#7E7DE8"/>
</linearGradient>
<linearGradient id="paint3_linear_506_1291" x1="500.713" y1="22.9648" x2="507.486" y2="21.1304" gradientUnits="userSpaceOnUse">
<stop stop-color="#FF8045"/>
<stop offset="1" stop-color="#FDA556"/>
</linearGradient>
<linearGradient id="paint4_linear_506_1291" x1="492.025" y1="18" x2="477.343" y2="21.9279" gradientUnits="userSpaceOnUse">
<stop stop-color="#00B0FC"/>
<stop offset="1" stop-color="#0092FC"/>
</linearGradient>
<linearGradient id="paint5_linear_506_1291" x1="175.52" y1="4.96478" x2="182.292" y2="3.13044" gradientUnits="userSpaceOnUse">
<stop stop-color="#FF8045"/>
<stop offset="1" stop-color="#FDA556"/>
</linearGradient>
<linearGradient id="paint6_linear_506_1291" x1="153.118" y1="190.883" x2="159.762" y2="183.235" gradientUnits="userSpaceOnUse">
<stop stop-color="#FF8045"/>
<stop offset="1" stop-color="#FDA556"/>
</linearGradient>
<linearGradient id="paint7_linear_506_1291" x1="160.579" y1="192.639" x2="167.224" y2="184.991" gradientUnits="userSpaceOnUse">
<stop stop-color="#FF8045"/>
<stop offset="1" stop-color="#FDA556"/>
</linearGradient>
<linearGradient id="paint8_linear_506_1291" x1="550.246" y1="185.883" x2="544.413" y2="192.515" gradientUnits="userSpaceOnUse">
<stop stop-color="#00B0FC"/>
<stop offset="1" stop-color="#0092FC"/>
</linearGradient>
<linearGradient id="paint9_linear_506_1291" x1="557.909" y1="185.647" x2="552.076" y2="192.279" gradientUnits="userSpaceOnUse">
<stop stop-color="#00B0FC"/>
<stop offset="1" stop-color="#0092FC"/>
</linearGradient>
<clipPath id="clip0_506_1291">
<rect width="18.6458" height="18.6458" fill="white" transform="translate(625.613 220.87) rotate(29.8236)"/>
</clipPath>
<clipPath id="clip1_506_1291">
<rect width="18.8992" height="18.8992" fill="white" transform="translate(674.233 96.4568) rotate(21.0265)"/>
</clipPath>
<clipPath id="clip2_506_1291">
<rect width="18.6348" height="18.5719" fill="white" transform="translate(48.4617 23.1657) rotate(36.5014)"/>
</clipPath>
<clipPath id="clip3_506_1291">
<rect width="22.7862" height="22.7862" fill="white" transform="translate(140.843 271.231) rotate(-29.2016)"/>
</clipPath>
</defs>
</svg>
