<svg width="146" height="337" viewBox="0 0 146 337" fill="none" xmlns="http://www.w3.org/2000/svg">
<circle cx="93.0326" cy="119.033" r="19.3719" transform="rotate(21.0265 93.0326 119.033)" fill="#039BE5"/>
<g clip-path="url(#clip0_823_61)">
<path d="M89.3335 119.998L87.3259 124.285C87.7742 124.457 88.0424 124.339 88.3642 124.198L91.2382 122.997L94.3675 127.861C94.9952 128.613 95.648 128.595 96.227 127.732L104.235 115.435L104.236 115.434C104.943 114.351 104.441 113.628 103.551 113.618L84.2739 113.592C82.9559 113.597 82.7275 114.243 83.5507 114.892L87.3332 117.879L99.7125 115.471C100.302 115.341 100.662 115.677 100.192 115.853L89.3335 119.998Z" fill="white"/>
</g>
<path opacity="0.3" d="M154.506 16.3805C164.997 45.8021 187.646 131.483 154.505 144.797C110.846 162.337 135.199 100.894 74.2252 122.162C19.7529 141.163 13.5856 220.319 50.7268 247.107C97.969 281.179 160.08 269.617 183.956 228.262C204.075 193.415 262.088 185.524 245.633 228.361C239.211 245.079 242.502 271.012 233.194 287.134" stroke="#3976F4" stroke-width="2" stroke-linecap="round" stroke-linejoin="round"/>
<path opacity="0.3" d="M196.24 63.4612C193.994 91.319 177.399 157.292 150.576 163.374C117.048 170.976 97.526 136.272 77.2406 148.072C56.9552 159.871 51.1126 211.964 83.0822 230.422C108.069 244.848 134.598 243.436 158.393 222.567C180.607 203.085 194.498 162.524 219.97 168.073C234.829 171.309 245.76 185 251.52 198.357" stroke="#3976F4" stroke-width="2" stroke-linecap="round" stroke-linejoin="round"/>
<ellipse opacity="0.3" cx="115.008" cy="200.388" rx="30.3484" ry="20.5375" transform="rotate(30 115.008 200.388)" stroke="#3976F4" stroke-width="2" stroke-linecap="round" stroke-linejoin="round"/>
<defs>
<clipPath id="clip0_823_61">
<rect width="20.2944" height="20.2944" fill="white" transform="translate(86.5052 105.159) rotate(21.0265)"/>
</clipPath>
</defs>
</svg>
