<svg width="346" height="338" viewBox="0 0 346 338" fill="none" xmlns="http://www.w3.org/2000/svg"><circle cx="297.204" cy="237.152" r="35.629" transform="rotate(29.824 297.204 237.152)" fill="#1E88E5"/><g clip-path="url(#clip0_833_63)"><path d="M290.898 246.475L292.877 247.609C292.877 247.609 293.513 247.886 294.006 247.731C294.461 247.59 294.776 247.017 294.776 247.017C294.776 247.017 296.259 244.339 297.717 244.655C299.153 244.966 299.021 248.813 300.024 250.897C300.782 252.473 301.84 252.83 301.84 252.83L306.299 255.303C306.299 255.303 308.695 256.487 308.641 254.039C308.638 253.839 308.773 252.326 307.533 248.348C306.236 244.183 306.368 244.815 312.262 242.277C315.851 240.732 317.614 239.542 317.765 238.689C317.91 237.875 316.311 237.195 316.311 237.195L311.318 234.371C311.318 234.371 310.978 234.11 310.609 234.116C310.25 234.124 309.864 234.398 309.864 234.398C309.864 234.398 307.872 236.045 305.798 237.227C301.422 239.721 300.42 239.411 300.192 238.97C299.662 237.942 300.816 236.417 301.486 235.25C303.578 231.6 305.003 230.396 303.597 229.067C303.129 228.626 302.782 228.311 301.405 227.503C299.64 226.466 298.12 225.628 297.031 225.557C296.305 225.509 295.513 225.877 295.76 226.066C296.064 226.298 296.719 226.882 296.806 227.647C296.92 228.634 296.007 230.184 296.007 230.184C296.007 230.184 293.838 234.648 292.553 234.621C291.67 234.601 291.177 233.326 291.16 228.775C291.15 226.446 291.494 224.071 291.494 224.071C291.494 224.071 291.553 223.627 291.401 223.283C291.216 222.867 290.812 222.536 290.812 222.536L286.063 219.852C286.063 219.852 285.341 219.466 284.903 219.625C284.514 219.767 284.402 220.457 284.402 220.457C284.402 220.457 283.139 231.248 284.828 238.022C286.38 244.234 290.898 246.475 290.898 246.475Z" fill="#fff"/></g><circle cx="274.131" cy="92.759" r="36.934" transform="rotate(21.026 274.131 92.759)" fill="#039BE5"/><g clip-path="url(#clip1_833_63)"><path d="M267.078 94.5992L263.251 102.773C264.106 103.101 264.617 102.876 265.23 102.606L270.71 100.317L276.676 109.59C277.873 111.024 279.118 110.989 280.221 109.344L295.489 85.8993L295.492 85.8984C296.84 83.8328 295.881 82.4538 294.185 82.4357L257.432 82.3864C254.919 82.3947 254.484 83.6263 256.053 84.8635L263.265 90.5597L286.867 85.9683C287.99 85.7196 288.678 86.3606 287.78 86.6961L267.078 94.5992Z" fill="#fff"/></g><circle cx="54.428" cy="170.345" r="39.625" transform="rotate(-30.662 54.428 170.345)" fill="#6F3FAA"/><path d="M65.4294 152.572L65.4052 152.532C64.1467 151.252 62.2626 150.276 60.2226 149.723C57.8355 149.07 55.2391 148.986 53.2088 149.664L53.1711 149.687C47.1942 151.84 41.6805 155.109 36.923 159.32L36.8854 159.342C33.9723 162.048 32.4154 167.692 33.536 171.426L33.5602 171.467C35.2414 176.568 38.0128 181.243 41.6819 185.166L41.7042 185.203C43.6567 187.182 47.1097 188.431 50.2974 188.533C51.3451 188.577 52.3937 188.471 53.411 188.217L55.5637 191.848C55.7369 192.137 55.9925 192.368 56.2977 192.512C56.6029 192.656 56.9439 192.705 57.2774 192.655C57.6109 192.604 57.9217 192.455 58.1701 192.226C58.4186 191.998 58.5935 191.701 58.6725 191.373L60.0857 185.366C60.9081 184.937 61.7257 184.487 62.5221 184.014C65.2479 182.397 67.8149 180.526 70.1889 178.427L70.2265 178.404C73.1283 175.701 74.6883 170.055 73.5615 166.325L73.5391 166.287C71.8635 161.181 69.0961 156.501 65.4294 152.572V152.572ZM70.2404 167.327C70.9596 169.77 69.7737 174.045 67.8701 175.831C65.3467 178.064 62.5897 180.018 59.647 181.659C59.6177 181.674 59.5923 181.696 59.5727 181.722C59.553 181.748 59.5397 181.779 59.5336 181.811L58.4824 186.164L57.3609 190.791C57.3438 190.866 57.3045 190.935 57.248 190.988C57.1915 191.04 57.1204 191.075 57.0439 191.087C56.9675 191.099 56.8892 191.088 56.8192 191.055C56.7492 191.022 56.6908 190.969 56.6514 190.902L53.0823 184.882C53.0536 184.833 53.0089 184.796 52.9559 184.778C52.9029 184.759 52.8449 184.759 52.7921 184.778C52.2706 184.941 51.7299 185.033 51.184 185.054C48.7323 185.164 45.6458 184.239 44.1907 182.771C40.8763 179.224 38.3716 174.999 36.8497 170.389C36.133 167.958 37.3383 163.68 39.2243 161.901C43.6421 157.993 48.7608 154.958 54.3092 152.957C55.6762 152.511 57.6005 152.612 59.3484 153.101C60.7804 153.494 62.0891 154.15 62.905 154.955C66.2163 158.5 68.719 162.721 70.2404 167.327V167.327Z" fill="#fff"/><path d="M65.021 170.845C65.1648 172.016 64.9214 173.202 64.3281 174.222C64.1199 174.505 63.8853 174.767 63.6275 175.006C63.2325 175.104 62.8718 175.225 62.514 175.272C59.5888 175.756 56.6047 175.767 53.6762 175.304C52.7979 175.152 51.9313 174.939 51.0826 174.667C48.9692 173.966 46.9602 172.981 45.1104 171.742C44.2239 171.161 43.3833 170.515 42.5384 169.876C41.7694 169.294 41.7594 168.219 41.8958 167.363C42.0468 166.554 42.3672 165.787 42.836 165.111C42.995 164.862 43.2357 164.678 43.5165 164.589C43.7973 164.5 44.1004 164.512 44.3733 164.623C45.708 165.048 46.9953 165.61 48.2147 166.299C48.5839 166.491 48.8649 166.818 48.9996 167.211C49.1343 167.605 49.1123 168.035 48.9382 168.413C48.8465 168.615 48.764 168.834 48.7017 169.036C48.6272 169.213 48.5843 169.402 48.575 169.594C48.573 169.77 48.6116 169.944 48.6879 170.102C48.7641 170.261 48.876 170.399 49.0147 170.507C50.6069 171.814 52.3491 172.658 54.3006 172.819C54.9602 172.872 55.6237 172.85 56.2783 172.752C56.7334 172.735 57.1764 172.601 57.5644 172.363C58.1996 171.876 57.9774 170.987 58.2234 170.315C58.336 170.006 58.5452 169.742 58.8199 169.562C59.0947 169.381 59.4203 169.294 59.7484 169.314C60.4423 169.326 61.1415 169.39 61.8351 169.445C62.5147 169.489 63.1914 169.568 63.8624 169.684C64.1607 169.712 64.4398 169.843 64.6514 170.055C64.8629 170.267 64.9937 170.547 65.021 170.845V170.845Z" fill="#fff"/><path d="M49.3942 159.804L48.9929 160.042C49.1177 159.96 49.2562 159.886 49.3942 159.804Z" fill="#6F3FAA"/><path d="M61.9021 165.088C61.5886 165.274 61.2769 165.099 61.0821 164.82C60.7011 164.271 60.3277 163.712 59.911 163.188C59.2047 162.306 58.3216 161.581 57.3185 161.06C56.2807 160.513 55.1396 160.189 53.969 160.111C52.7985 160.033 51.6245 160.201 50.5231 160.605C50.0232 160.791 49.5512 161.046 49.0686 161.268C48.7616 161.408 48.371 161.614 48.0964 161.294C48.0459 161.23 48.0095 161.156 47.9899 161.077C47.9702 160.998 47.9676 160.915 47.9823 160.835C47.997 160.755 48.0286 160.679 48.075 160.612C48.1214 160.545 48.1816 160.489 48.2515 160.447C48.3241 160.398 48.3995 160.354 48.4773 160.313C49.8547 159.513 51.4084 159.064 53.0007 159.007C54.593 158.95 56.1749 159.286 57.6061 159.986C58.7472 160.558 59.7626 161.352 60.5926 162.322C61.1133 162.929 61.5699 163.599 62.0321 164.257C62.0829 164.318 62.1201 164.39 62.1412 164.466C62.1623 164.543 62.1669 164.623 62.1546 164.702C62.1423 164.781 62.1134 164.856 62.0699 164.922C62.0264 164.989 61.9692 165.045 61.9021 165.088V165.088Z" fill="#fff"/><path d="M59.3374 164.628C59.3908 164.722 59.4331 164.823 59.4633 164.927C59.4897 165.033 59.4825 165.146 59.4427 165.248C59.4029 165.351 59.3325 165.439 59.241 165.5C59.1495 165.561 59.0413 165.593 58.9313 165.591C58.8212 165.588 58.7146 165.552 58.6258 165.487C58.5162 165.38 58.4227 165.259 58.3483 165.126C57.9398 164.42 57.3889 163.807 56.7305 163.326C56.586 163.225 56.4334 163.125 56.2751 163.037C55.3676 162.529 54.331 162.3 53.2941 162.376C52.6757 162.434 52.0688 162.58 51.4914 162.809C51.2371 162.909 50.992 163.025 50.7414 163.131C50.6792 163.164 50.611 163.183 50.5409 163.189C50.4708 163.194 50.4003 163.185 50.3339 163.162C50.2674 163.139 50.2064 163.103 50.1546 163.055C50.1027 163.008 50.0612 162.95 50.0325 162.886C49.9961 162.824 49.9731 162.756 49.9651 162.685C49.957 162.614 49.964 162.542 49.9857 162.474C50.0074 162.406 50.0432 162.343 50.0908 162.29C50.1384 162.237 50.1968 162.194 50.262 162.165C51.2037 161.655 52.2452 161.355 53.3142 161.288C54.6152 161.198 55.9115 161.521 57.0183 162.211C57.6539 162.62 58.2191 163.129 58.692 163.718C58.7587 163.792 58.8215 163.87 58.8802 163.95C59.0074 164.129 59.1252 164.313 59.2785 164.536C59.2915 164.558 59.3114 164.584 59.3374 164.628Z" fill="#6F3FAA"/><path d="M56.9355 165.47C56.9649 165.56 56.9667 165.657 56.9406 165.748C56.9145 165.839 56.8617 165.92 56.7891 165.98L56.7201 166.021C56.6213 166.089 56.5032 166.122 56.3836 166.117C56.2641 166.111 56.1496 166.067 56.0576 165.99C56.0076 165.95 55.9631 165.904 55.9252 165.853C55.7836 165.651 55.6279 165.461 55.4593 165.281C55.1182 164.918 54.6601 164.687 54.1656 164.629C53.9311 164.608 53.6948 164.628 53.467 164.687C53.1765 164.762 52.9274 164.935 52.6475 165.02C52.5139 165.071 52.3659 165.066 52.2358 165.007C52.1057 164.948 52.0041 164.841 51.9534 164.707C51.908 164.577 51.9115 164.436 51.9631 164.308C52.0148 164.181 52.1111 164.077 52.234 164.015C53.7314 163.267 55.2127 163.322 56.4013 164.697C56.5145 164.824 56.62 164.956 56.7174 165.095C56.8084 165.208 56.8819 165.335 56.9355 165.47V165.47Z" fill="#fff"/><g filter="url(#filter0_d_833_63)"><circle cx="116.572" cy="47.824" r="32.047" transform="rotate(36.501 116.572 47.824)" fill="#2CB742"/></g><g clip-path="url(#clip2_833_63)"><path fill-rule="evenodd" clip-rule="evenodd" d="M135.369 43.696C134.665 39.0217 132.182 34.8959 128.372 32.0742C120.519 26.2631 109.415 27.903 103.619 35.7291C101.766 38.2308 100.614 41.1591 100.267 44.235L92.8016 50.097L101.815 53.7114C103.059 56.3827 104.961 58.7126 107.345 60.4777L107.351 60.4821C115.203 66.2926 126.308 64.6526 132.104 56.826C134.914 53.0331 136.073 48.3703 135.369 43.696ZM109.125 58.0841L109.12 58.0804C106.996 56.5072 105.333 54.3961 104.31 51.9755L104.067 51.3998L98.7185 49.255L103.137 45.7853L103.186 45.1303C103.391 42.3741 104.372 39.7391 106.024 37.5101C110.841 31.0051 120.071 29.6424 126.602 34.4758C129.764 36.8174 131.828 40.2467 132.413 44.1318C132.998 48.0169 132.034 51.8925 129.7 55.0452C124.881 61.5505 115.652 62.914 109.125 58.0841V58.0841ZM122.161 54.0518C121.937 53.6108 120.821 51.4576 120.583 51.0974C120.344 50.7378 120.15 50.503 119.65 50.6826C119.15 50.8619 117.877 51.1564 117.494 51.2393C117.111 51.3223 116.881 51.1986 116.657 50.7574C116.432 50.3164 115.562 49.0929 115.097 46.878C114.735 45.1542 114.88 43.4637 114.935 42.955C114.991 42.4461 115.325 42.4248 115.627 42.3465C116.366 42.1547 117.121 41.9403 117.415 41.7914C117.709 41.6425 117.803 41.3913 117.845 41.1478C117.888 40.9046 118.468 38.6315 118.697 37.7014C118.92 36.7959 118.558 36.6723 118.347 36.4997C118.147 36.3358 117.911 36.158 117.674 35.9823C117.437 35.8068 116.985 35.61 116.396 35.7239C115.807 35.8377 114.252 36.0154 112.96 37.7617C111.668 39.508 111.695 42.1389 111.698 42.5074C111.7 42.8758 111.381 48.1853 113.815 52.3643C114.393 53.3587 114.895 54.0674 115.291 54.6136C115.944 55.5147 116.748 56.0507 117.429 56.4134C118.189 56.8176 120.17 57.1135 121.08 56.5045C121.99 55.8952 122.516 55.185 122.536 54.9709C122.557 54.7572 122.385 54.4928 122.161 54.0518V54.0518Z" fill="#fff"/></g><circle cx="137.066" cy="288.625" r="36.284" transform="rotate(-29.202 137.066 288.625)" fill="#3976F4"/><g clip-path="url(#clip3_833_63)"><path d="M127.961 272.349C118.966 277.377 115.451 288.213 120.112 296.552C122.766 301.302 127.501 304.216 132.748 304.916L135.789 310.202C135.953 310.488 136.364 310.493 136.535 310.21L140.007 304.478C141.65 304.06 143.276 303.419 144.839 302.546C153.835 297.518 157.35 286.682 152.689 278.343C148.029 270.005 136.957 267.321 127.961 272.349V272.349ZM140.357 291.623L134.85 289.945C134.527 289.847 134.178 289.976 133.997 290.26L129.726 296.965C129.564 297.22 129.169 297.05 129.243 296.756L132.184 285.069C132.269 284.733 132.618 284.538 132.948 284.642L138.493 286.391C138.819 286.494 139.172 286.364 139.354 286.075L143.531 279.45C143.693 279.194 144.089 279.364 144.015 279.658L141.115 291.195C141.031 291.528 140.686 291.723 140.357 291.623V291.623Z" fill="#fff"/></g><path transform="rotate(.97 108.345 100.541)" fill="#2CB742" d="M108.345 100.541H128.84V105.363H108.345z"/><path transform="rotate(90.97 121.135 92.918)" fill="#2CB742" d="M121.135 92.918H141.63V97.74000000000001H121.135z"/><circle cx="264.181" cy="165.223" r="4.822" fill="url(#paint0_linear_833_63)"/><circle r="5.828" transform="matrix(1 0 0 -1 109.778 207.023)" fill="url(#paint1_linear_833_63)"/><circle cx="221.444" cy="295.378" r="4.822" fill="url(#paint2_linear_833_63)"/><circle cx="188.419" cy="7.871" r="4.822" fill="url(#paint3_linear_833_63)"/><defs><linearGradient id="paint0_linear_833_63" x1="259.359" y1="170.045" x2="272.516" y2="166.482" gradientUnits="userSpaceOnUse"><stop stop-color="#FF8045"/><stop offset="1" stop-color="#FDA556"/></linearGradient><linearGradient id="paint1_linear_833_63" x1="11.656" y1="0" x2="-2.131" y2="3.689" gradientUnits="userSpaceOnUse"><stop stop-color="#00B0FC"/><stop offset="1" stop-color="#0092FC"/></linearGradient><linearGradient id="paint2_linear_833_63" x1="226.615" y1="290.556" x2="214.912" y2="293.577" gradientUnits="userSpaceOnUse"><stop stop-color="#7F7EFF"/><stop offset="1" stop-color="#7E7DE8"/></linearGradient><linearGradient id="paint3_linear_833_63" x1="183.597" y1="12.694" x2="196.754" y2="9.13" gradientUnits="userSpaceOnUse"><stop stop-color="#FF8045"/><stop offset="1" stop-color="#FDA556"/></linearGradient><clipPath id="clip0_833_63"><path fill="#fff" transform="rotate(29.824 -251.873 649.3)" d="M0 0H38.174V38.174H0z"/></clipPath><clipPath id="clip1_833_63"><path fill="#fff" transform="rotate(21.026 -47.806 738.209)" d="M0 0H38.693V38.693H0z"/></clipPath><clipPath id="clip2_833_63"><path fill="#fff" transform="rotate(36.501 26.923 182.164)" d="M0 0H38.151V38.023H0z"/></clipPath><clipPath id="clip3_833_63"><path fill="#fff" transform="rotate(-29.202 589.414 -62.331)" d="M0 0H46.651V46.651H0z"/></clipPath><filter id="filter0_d_833_63" x="20.417" y=".234" width="192.311" height="192.311" filterUnits="userSpaceOnUse" color-interpolation-filters="sRGB"><feFlood flood-opacity="0" result="BackgroundImageFix"/><feColorMatrix in="SourceAlpha" values="0 0 0 0 0 0 0 0 0 0 0 0 0 0 0 0 0 0 127 0" result="hardAlpha"/><feOffset dy="48.565"/><feGaussianBlur stdDeviation="32.053"/><feComposite in2="hardAlpha" operator="out"/><feColorMatrix values="0 0 0 0 0.503531 0 0 0 0 0.507706 0 0 0 0 0.545833 0 0 0 0.08 0"/><feBlend in2="BackgroundImageFix" result="effect1_dropShadow_833_63"/><feBlend in="SourceGraphic" in2="effect1_dropShadow_833_63" result="shape"/></filter></defs></svg>