<svg width="70" height="135" viewBox="0 0 70 135" fill="none" xmlns="http://www.w3.org/2000/svg"><g filter="url(#filter0_d_565_767)"><circle cx="4.79" cy="44.79" r="32.023" transform="rotate(36.501 4.79 44.79)" fill="#2CB742"/></g><g clip-path="url(#clip0_565_767)"><path fill-rule="evenodd" clip-rule="evenodd" d="M23.5725 40.6651C22.8693 35.9943 20.3882 31.8716 16.5813 29.0521C8.7345 23.2454 -2.3614 24.8841 -8.15318 32.7043C-10.0047 35.2041 -11.1556 38.1301 -11.5019 41.2037L-18.9621 47.0611L-9.95521 50.6728C-8.71232 53.3421 -6.8121 55.6702 -4.43015 57.4339L-4.42419 57.4383C3.42178 63.2444 14.5188 61.6057 20.3106 53.7851C23.1177 49.995 24.276 45.3358 23.5725 40.6651ZM-2.65126 55.0421L-2.65617 55.0385C-4.77864 53.4665 -6.4401 51.357 -7.46213 48.9382L-7.70482 48.3629L-13.0497 46.2198L-8.63412 42.7527L-8.5854 42.0983C-8.38046 39.3442 -7.40003 36.7112 -5.75015 34.4839C-0.936342 27.9838 8.2862 26.6222 14.8128 31.4519C17.9726 33.7917 20.0346 37.2184 20.6191 41.1005C21.2035 44.9826 20.2406 48.8553 17.9078 52.0056C13.0932 58.5059 3.87065 59.8683 -2.65126 55.0421ZM10.3748 51.0129C10.1506 50.5722 9.0361 48.4207 8.79763 48.0608C8.55938 47.7014 8.36554 47.4669 7.86612 47.6463C7.36636 47.8255 6.09378 48.1198 5.7112 48.2026C5.32849 48.2856 5.09924 48.1619 4.87485 47.7211C4.65033 47.2804 3.78138 46.0578 3.31634 43.8446C2.9546 42.1221 3.09983 40.433 3.15473 39.9246C3.21025 39.4161 3.54404 39.3948 3.84618 39.3166C4.5839 39.125 5.33922 38.9107 5.63272 38.7619C5.92653 38.6132 6.02034 38.3621 6.06252 38.1188C6.10505 37.8758 6.68492 35.6044 6.91401 34.6751C7.13637 33.7702 6.7743 33.6467 6.56384 33.4742C6.36421 33.3105 6.12851 33.1329 5.89127 32.9573C5.65419 32.7819 5.20321 32.5853 4.61429 32.699C4.02566 32.8127 2.47226 32.9903 1.181 34.7353C-0.110257 36.4802 -0.0830702 39.1091 -0.0803663 39.4773C-0.0776612 39.8455 -0.396873 45.1509 2.03509 49.3268C2.61324 50.3204 3.11444 51.0285 3.51028 51.5743C4.1628 52.4748 4.96621 53.0103 5.64674 53.3727C6.40564 53.7767 8.3858 54.0723 9.2952 53.4638C10.2044 52.8549 10.7296 52.1452 10.75 51.9313C10.7707 51.7178 10.599 51.4536 10.3748 51.0129Z" fill="#fff"/></g><defs><clipPath id="clip0_565_767"><path fill="#fff" transform="rotate(36.501 -24.399 11.173)" d="M0 0H38.122V37.994H0z"/></clipPath><filter id="filter0_d_565_767" x="-60.234" y="4.765" width="130.05" height="130.05" filterUnits="userSpaceOnUse" color-interpolation-filters="sRGB"><feFlood flood-opacity="0" result="BackgroundImageFix"/><feColorMatrix in="SourceAlpha" values="0 0 0 0 0 0 0 0 0 0 0 0 0 0 0 0 0 0 127 0" result="hardAlpha"/><feOffset dy="25"/><feGaussianBlur stdDeviation="16.5"/><feComposite in2="hardAlpha" operator="out"/><feColorMatrix values="0 0 0 0 0.503531 0 0 0 0 0.507706 0 0 0 0 0.545833 0 0 0 0.08 0"/><feBlend in2="BackgroundImageFix" result="effect1_dropShadow_565_767"/><feBlend in="SourceGraphic" in2="effect1_dropShadow_565_767" result="shape"/></filter></defs></svg>