<svg width="41" height="31" viewBox="0 0 41 31" fill="none" xmlns="http://www.w3.org/2000/svg"><rect y="1.722" width="31.861" height="29.278" rx="3" fill="#C4D6FC"/><rect x="3.441" y="5.167" width="24.972" height="22.389" rx="3" fill="#3976F4"/><path d="M32.0065 1.34333V1.77644L32.4352 1.83822C34.3808 2.11863 35.8815 3.79331 35.8815 5.81249V7.61307C35.8815 9.03782 36.5058 10.3834 37.5939 11.3037C37.7408 11.4302 37.819 11.6044 37.819 11.7864C37.819 12.1335 37.5359 12.4166 37.1888 12.4166H26.5326C26.1855 12.4166 25.9023 12.1335 25.9023 11.7864C25.9023 11.6024 25.982 11.4289 26.1218 11.3088C27.2152 10.3836 27.8398 9.03827 27.8398 7.61307V5.81249C27.8398 3.79325 29.3399 2.11863 31.2862 1.83822L31.7148 1.77645V1.34333V0.645832C31.7148 0.565156 31.78 0.5 31.8607 0.5C31.9414 0.5 32.0065 0.565156 32.0065 0.645832V1.34333Z" fill="#3976F4" stroke="#fff"/><path d="M34.7238 13.6623L34.8459 13.0625H34.2339H29.4883H28.8762L28.9983 13.6623C29.2695 14.9938 30.4486 16 31.8611 16C33.2735 16 34.4527 14.9938 34.7238 13.6623Z" fill="#3976F4" stroke="#fff"/></svg>