<svg viewBox="0 0 112 116" fill="none" xmlns="http://www.w3.org/2000/svg"><g filter="url(#filter0_d_516_4979)"><circle cx="57.296" cy="33.599" r="23.826" transform="rotate(36.501 57.296 33.599)" fill="#2CB742"/></g><g clip-path="url(#clip0_516_4979)"><path fill-rule="evenodd" clip-rule="evenodd" d="M71.2702 30.5305C70.747 27.0552 68.901 23.9878 66.0685 21.8899C60.2301 17.5695 51.9743 18.7888 47.665 24.6073C46.2874 26.4673 45.4311 28.6444 45.1734 30.9312L39.6227 35.2894L46.3242 37.9766C47.2489 39.9627 48.6628 41.6949 50.4351 43.0072L50.4395 43.0105C56.2772 47.3304 64.5339 46.1112 68.8433 40.2923C70.9318 37.4724 71.7937 34.0057 71.2702 30.5305ZM51.7586 41.2276L51.755 41.2249C50.1758 40.0553 48.9396 38.4857 48.1791 36.686L47.9986 36.258L44.0218 34.6634L47.3071 32.0838L47.3434 31.5969C47.4959 29.5477 48.2253 27.5886 49.4529 25.9314C53.0346 21.0951 59.8966 20.0819 64.7527 23.6755C67.1036 25.4164 68.6379 27.966 69.0728 30.8544C69.5076 33.7429 68.7912 36.6244 67.0554 38.9683C63.4732 43.8048 56.6112 44.8185 51.7586 41.2276ZM61.4506 38.2297C61.2838 37.9018 60.4545 36.301 60.2771 36.0332C60.0998 35.7658 59.9556 35.5913 59.584 35.7248C59.2122 35.8581 58.2653 36.0771 57.9807 36.1387C57.6959 36.2005 57.5253 36.1084 57.3584 35.7804C57.1913 35.4526 56.5448 34.5429 56.1988 32.8962C55.9296 31.6146 56.0377 30.3578 56.0785 29.9795C56.1199 29.6012 56.3682 29.5853 56.593 29.5271C57.1419 29.3846 57.7039 29.2251 57.9223 29.1145C58.1409 29.0038 58.2107 28.817 58.2421 28.6359C58.2737 28.4551 58.7052 26.7651 58.8756 26.0736C59.0411 25.4004 58.7717 25.3085 58.6151 25.1802C58.4665 25.0584 58.2912 24.9262 58.1146 24.7956C57.9382 24.665 57.6027 24.5187 57.1645 24.6034C56.7266 24.688 55.5708 24.8201 54.61 26.1184C53.6492 27.4168 53.6695 29.3728 53.6715 29.6467C53.6735 29.9207 53.436 33.8681 55.2455 36.9751C55.6756 37.7144 56.0486 38.2413 56.3431 38.6474C56.8286 39.3174 57.4264 39.7159 57.9327 39.9855C58.4974 40.2861 59.9707 40.506 60.6473 40.0533C61.3238 39.6003 61.7145 39.0722 61.7298 38.913C61.7452 38.7542 61.6174 38.5576 61.4506 38.2297Z" fill="#fff"/></g><defs><clipPath id="clip0_516_4979"><path fill="#fff" transform="rotate(36.501 8.297 89.92)" d="M0 0H28.365V28.269H0z"/></clipPath><filter id="filter0_d_516_4979" x=".468" y="1.771" width="113.656" height="113.656" filterUnits="userSpaceOnUse" color-interpolation-filters="sRGB"><feFlood flood-opacity="0" result="BackgroundImageFix"/><feColorMatrix in="SourceAlpha" values="0 0 0 0 0 0 0 0 0 0 0 0 0 0 0 0 0 0 127 0" result="hardAlpha"/><feOffset dy="25"/><feGaussianBlur stdDeviation="16.5"/><feComposite in2="hardAlpha" operator="out"/><feColorMatrix values="0 0 0 0 0.503531 0 0 0 0 0.507706 0 0 0 0 0.545833 0 0 0 0.08 0"/><feBlend in2="BackgroundImageFix" result="effect1_dropShadow_516_4979"/><feBlend in="SourceGraphic" in2="effect1_dropShadow_516_4979" result="shape"/></filter></defs></svg>