<svg width="36" height="36" viewBox="0 0 36 36" fill="none" xmlns="http://www.w3.org/2000/svg"><path d="M24.8927 2.22339H4.07109C1.82602 2.22339 0 4.0494 0 6.29448V24.5406C0 25.4047 0.977273 25.8918 1.66711 25.3991L7.46578 21.2619C7.95234 20.9153 8.52469 20.7317 9.12234 20.7317H21.8763C24.1214 20.7317 25.9474 18.9057 25.9474 16.6607V3.27808C25.9474 2.69589 25.4749 2.22339 24.8927 2.22339ZM19.7698 14.9999H7.58391C7.00172 14.9999 6.52922 14.5281 6.52922 13.9452C6.52922 13.363 7.00172 12.8905 7.58391 12.8905H19.7698C20.352 12.8905 20.8245 13.363 20.8245 13.9452C20.8245 14.5281 20.352 14.9999 19.7698 14.9999ZM19.7698 10.078H7.58391C7.00172 10.078 6.52922 9.6062 6.52922 9.02331C6.52922 8.44112 7.00172 7.96862 7.58391 7.96862H19.7698C20.352 7.96862 20.8245 8.44112 20.8245 9.02331C20.8245 9.6062 20.352 10.078 19.7698 10.078Z" fill="currentColor"/><path opacity=".5" d="M35.9982 14.4754V32.7208C35.9982 33.5791 35.0259 34.0755 34.3311 33.5793L28.5324 29.4428C28.0459 29.0961 27.4735 28.9126 26.8759 28.9126H14.1219C11.8768 28.9126 10.0508 27.0859 10.0508 24.8408V22.8411H21.8745C25.2826 22.8411 28.055 20.0687 28.055 16.6607V10.4036H31.9271C34.1722 10.4036 35.9982 12.2303 35.9982 14.4754Z" fill="currentColor"/></svg>