<svg width="36" height="36" viewBox="0 0 36 36" fill="none" xmlns="http://www.w3.org/2000/svg"><g clip-path="url(#clip0_565_1341)"><path d="M30.2831 14.0353C33.4357 14.0353 36.0002 11.4708 36.0002 8.31857C36.0002 5.16632 33.4357 2.60156 30.2831 2.60156C27.1309 2.60156 24.5664 5.16632 24.5664 8.31857C24.5664 11.4708 27.1309 14.0353 30.2831 14.0353ZM29.2285 5.8222H31.3381V10.8147H29.2285V5.8222Z" fill="#C4D6FC"/><path d="M30.283 16.1447C25.9676 16.1447 22.4566 12.6341 22.4566 8.31863C22.4566 7.33344 22.6401 6.39026 22.9741 5.52124H4.20447C1.88608 5.52124 0 7.40732 0 9.72571V23.226C0 25.5444 1.88608 27.4307 4.20447 27.4307H5.3421V33.4694L14.3622 27.4307H26.1054C28.4238 27.4307 30.3099 25.5444 30.3099 23.226V16.1445C30.3011 16.1445 30.2921 16.1447 30.283 16.1447ZM21.9413 20.1729H8.92145V18.0632H21.9413V20.1729ZM21.9413 15.0623H8.92145V12.9527H21.9413V15.0623Z" fill="currentColor"/></g><defs><clipPath id="clip0_565_1341"><path fill="#fff" d="M0 0H36V36H0z"/></clipPath></defs></svg>