<svg width="103" height="103" viewBox="0 0 103 103" fill="none" xmlns="http://www.w3.org/2000/svg"><circle cx="51.079" cy="51.079" r="37.279" transform="rotate(-30.662 51.079 51.079)" fill="#6F3FAA"/><path d="M61.4295 34.3583L61.4068 34.32C60.2227 33.1163 58.4502 32.1977 56.5309 31.6771C54.285 31.063 51.8423 30.9843 49.9322 31.6224L49.8968 31.6434C44.2736 33.6695 39.0863 36.7449 34.6104 40.7062L34.575 40.7272C31.8344 43.273 30.3696 48.5826 31.4239 52.0959L31.4466 52.1342C33.0284 56.9338 35.6357 61.3316 39.0876 65.0224L39.1086 65.0578C40.9456 66.9189 44.1942 68.0946 47.1932 68.1904C48.1788 68.2322 49.1654 68.132 50.1225 67.8929L52.1477 71.3089C52.3107 71.5812 52.5511 71.7988 52.8383 71.934C53.1254 72.0692 53.4463 72.1158 53.76 72.068C54.0738 72.0201 54.3661 71.8799 54.5999 71.6652C54.8337 71.4505 54.9982 71.1711 55.0726 70.8626L56.4021 65.2105C57.1759 64.8076 57.945 64.3835 58.6943 63.9392C61.2587 62.4178 63.6738 60.6576 65.9073 58.6821L65.9427 58.6611C68.6727 56.1177 70.1404 50.8062 69.0802 47.2965L69.0592 47.2611C67.4828 42.4573 64.8792 38.0544 61.4295 34.3583ZM65.9558 48.2399C66.6324 50.5378 65.5167 54.5601 63.7258 56.2399C61.3517 58.3408 58.7579 60.1793 55.9893 61.7236C55.9618 61.7377 55.9379 61.7579 55.9194 61.7827C55.9009 61.8075 55.8884 61.8361 55.8827 61.8665L54.8937 65.9613L53.8386 70.3144C53.8225 70.3854 53.7855 70.45 53.7323 70.4997C53.6792 70.5494 53.6123 70.5821 53.5404 70.5933C53.4685 70.6046 53.3948 70.594 53.329 70.563C53.2631 70.5319 53.2081 70.4818 53.1711 70.4191L49.8132 64.7553C49.7863 64.7097 49.7442 64.675 49.6943 64.6573C49.6444 64.6395 49.5899 64.6397 49.5402 64.658C49.0496 64.8109 48.5409 64.898 48.0273 64.9171C45.7207 65.0208 42.8169 64.151 41.4479 62.7699C38.3297 59.4325 35.9733 55.4579 34.5415 51.1207C33.8671 48.8334 35.0011 44.8082 36.7755 43.1343C40.9318 39.4578 45.7475 36.6027 50.9675 34.7203C52.2536 34.3006 54.064 34.3954 55.7084 34.8558C57.0557 35.2252 58.2869 35.8427 59.0546 36.5996C62.1698 39.9349 64.5243 43.9063 65.9558 48.2399Z" fill="#fff"/><path d="M61.0452 51.5492C61.1805 52.651 60.9515 53.7669 60.3933 54.7264C60.1974 54.9926 59.9768 55.2396 59.7342 55.464C59.3626 55.5567 59.0232 55.6702 58.6866 55.7143C55.9345 56.1699 53.1271 56.18 50.3718 55.7441C49.5456 55.6015 48.7303 55.4014 47.9319 55.1455C45.9435 54.4853 44.0534 53.5593 42.3131 52.3928C41.479 51.8468 40.6883 51.2392 39.8933 50.638C39.1698 50.0902 39.1604 49.0791 39.2888 48.2734C39.4309 47.5126 39.7323 46.7904 40.1733 46.1543C40.3229 45.921 40.5494 45.7473 40.8136 45.6635C41.0777 45.5797 41.3629 45.591 41.6196 45.6955C42.8754 46.0955 44.0865 46.6239 45.2337 47.2725C45.581 47.453 45.8454 47.7603 45.9721 48.1305C46.0989 48.5008 46.0782 48.9057 45.9143 49.2611C45.828 49.4518 45.7505 49.6572 45.6918 49.8475C45.6217 50.0142 45.5814 50.192 45.5726 50.3726C45.5707 50.538 45.6071 50.7016 45.6788 50.8506C45.7506 50.9997 45.8558 51.1301 45.9863 51.2317C47.4843 52.4606 49.1234 53.255 50.9593 53.4064C51.5799 53.4563 52.2042 53.4353 52.82 53.3438C53.2481 53.328 53.6649 53.2017 54.0299 52.9773C54.6276 52.5194 54.4185 51.6825 54.65 51.0509C54.7559 50.7603 54.9527 50.5117 55.2112 50.342C55.4697 50.1722 55.776 50.0904 56.0847 50.1086C56.7375 50.1203 57.3953 50.1808 58.0479 50.2324C58.6872 50.2732 59.3239 50.3482 59.9552 50.4571C60.2358 50.4833 60.4984 50.6068 60.6974 50.8063C60.8965 51.0057 61.0195 51.2685 61.0452 51.5492Z" fill="#fff"/><path d="M46.3435 41.1619L45.9659 41.3858C46.0833 41.3082 46.2137 41.2389 46.3435 41.1619Z" fill="#6F3FAA"/><path d="M58.111 46.1334C57.816 46.3083 57.5228 46.1432 57.3395 45.8811C56.9811 45.364 56.6298 44.8388 56.2378 44.3456C55.5732 43.5153 54.7424 42.8332 53.7987 42.3431C52.8223 41.8284 51.7487 41.5245 50.6475 41.4508C49.5462 41.3771 48.4417 41.5354 47.4055 41.9154C46.9352 42.0905 46.4911 42.3299 46.0371 42.5393C45.7482 42.6707 45.3808 42.8646 45.1224 42.5633C45.0749 42.5032 45.0407 42.4336 45.0222 42.3593C45.0037 42.2849 45.0013 42.2075 45.0151 42.1321C45.0289 42.0568 45.0586 41.9852 45.1023 41.9223C45.146 41.8593 45.2026 41.8064 45.2684 41.7671C45.3367 41.7211 45.4076 41.679 45.4808 41.6412C46.7767 40.8876 48.2384 40.4653 49.7365 40.4117C51.2346 40.358 52.7228 40.6746 54.0693 41.3335C55.1428 41.8715 56.0981 42.6186 56.879 43.5309C57.3689 44.1016 57.7984 44.732 58.2333 45.3512C58.2811 45.4089 58.3161 45.476 58.336 45.5482C58.3558 45.6204 58.3601 45.6959 58.3485 45.7699C58.337 45.8439 58.3098 45.9145 58.2689 45.9772C58.2279 46.0399 58.1741 46.0931 58.111 46.1334Z" fill="#fff"/><path d="M55.6981 45.7006C55.7483 45.7892 55.7881 45.8834 55.8166 45.9812C55.8414 46.0817 55.8346 46.1875 55.7972 46.2841C55.7597 46.3806 55.6935 46.4633 55.6074 46.5209C55.5213 46.5785 55.4195 46.6082 55.316 46.6059C55.2124 46.6036 55.1121 46.5694 55.0286 46.5081C54.9255 46.4082 54.8376 46.2939 54.7675 46.1686C54.3832 45.5047 53.8649 44.9281 53.2455 44.4755C53.1095 44.3807 52.9659 44.2864 52.817 44.2033C51.9632 43.7258 50.988 43.5097 50.0125 43.5816C49.4307 43.6365 48.8597 43.7737 48.3165 43.9891C48.0772 44.0831 47.8467 44.1919 47.6109 44.2918C47.5524 44.3226 47.4882 44.3411 47.4222 44.3462C47.3563 44.3512 47.29 44.3426 47.2275 44.321C47.165 44.2994 47.1076 44.2652 47.0588 44.2205C47.01 44.1759 46.9709 44.1216 46.944 44.0613C46.9097 44.0034 46.8881 43.939 46.8805 43.8722C46.8729 43.8055 46.8795 43.7378 46.8999 43.6738C46.9203 43.6097 46.954 43.5507 46.9988 43.5006C47.0436 43.4505 47.0985 43.4105 47.1599 43.3831C48.0459 42.903 49.0257 42.6214 50.0314 42.5577C51.2554 42.4732 52.4749 42.777 53.5163 43.4259C54.1142 43.8108 54.646 44.2899 55.0909 44.8446C55.1536 44.9142 55.2127 44.9869 55.268 45.0626C55.3876 45.2308 55.4985 45.4043 55.6427 45.6138C55.6549 45.6345 55.6736 45.6593 55.6981 45.7006Z" fill="#6F3FAA"/><path d="M53.4385 46.4923C53.4661 46.5769 53.4678 46.668 53.4432 46.7536C53.4187 46.8392 53.369 46.9155 53.3007 46.9726L53.2358 47.0111C53.1428 47.0747 53.0317 47.1062 52.9193 47.1009C52.8068 47.0957 52.6991 47.0539 52.6125 46.982C52.5655 46.9445 52.5236 46.9009 52.4879 46.8525C52.3547 46.6632 52.2083 46.4836 52.0496 46.315C51.7287 45.9736 51.2978 45.7562 50.8325 45.701C50.6119 45.6817 50.3896 45.7002 50.1752 45.7558C49.902 45.8261 49.6676 45.989 49.4043 46.0693C49.2786 46.1166 49.1393 46.1122 49.0169 46.0569C48.8945 46.0017 48.799 45.9003 48.7512 45.7748C48.7086 45.6527 48.7118 45.5193 48.7604 45.3995C48.809 45.2797 48.8996 45.1817 49.0152 45.1239C50.424 44.4203 51.8176 44.4711 52.9359 45.7656C53.0423 45.8843 53.1416 46.0091 53.2333 46.1395C53.3189 46.2462 53.3881 46.3651 53.4385 46.4923Z" fill="#fff"/></svg>