<svg width="135" height="557" viewBox="0 0 135 557" fill="none" xmlns="http://www.w3.org/2000/svg"><path opacity=".3" d="M-247.208 510.486C-238.053 460.482 -200.255 321.293 -142.712 329.495C-66.9046 340.301 -151.226 407.083 -47.9828 426.723C44.2525 444.269 117.357 337.723 86.8069 269.745C47.9488 183.281 -48.9988 149.036 -116.303 187.894C-173.014 220.636 -261.199 184.551 -203.151 137.566C-180.495 119.229 -195.854 74.9147 -169.617 59.7667" stroke="#3976F4" stroke-width="2" stroke-linecap="round" stroke-linejoin="round"/><path opacity=".3" d="M-267.716 410.17C-241.883 372.733 -164.809 293.254 -122.056 306.509C-68.6149 323.077 -69.3402 387.875 -31.1481 387.751C7.044 387.628 57.6681 318.961 27.6292 266.932C4.15121 226.267 -34.3875 206.67 -84.9069 216.721C-132.068 226.103 -184.652 271.966 -216.038 243.419C-234.346 226.766 -238.611 198.576 -235.861 175.062" stroke="#3976F4" stroke-width="2" stroke-linecap="round" stroke-linejoin="round"/></svg>