<svg width="283" height="683" viewBox="0 0 283 683" fill="none" xmlns="http://www.w3.org/2000/svg"><path opacity=".3" d="M312.762 34C333.998 93.5567 379.847 266.995 312.76 293.947C224.383 329.452 273.679 205.076 150.254 248.128C39.9884 286.59 27.5043 446.823 102.687 501.047C198.317 570.019 324.045 546.614 372.377 462.901C413.102 392.362 530.535 376.389 497.226 463.101C484.226 496.943 490.888 549.438 472.047 582.073" stroke="#3976F4" stroke-width="2" stroke-linecap="round" stroke-linejoin="round"/><path opacity=".3" d="M397.242 129.303C392.697 185.694 359.103 319.241 304.807 331.552C236.938 346.94 197.421 276.69 156.358 300.575C115.295 324.461 103.468 429.91 168.183 467.273C218.763 496.475 272.463 493.617 320.631 451.373C365.597 411.936 393.716 329.831 445.278 341.063C475.356 347.614 497.482 375.327 509.144 402.366" stroke="#3976F4" stroke-width="2" stroke-linecap="round" stroke-linejoin="round"/><ellipse opacity=".3" cx="232.809" cy="406.477" rx="61.433" ry="41.573" transform="rotate(30 232.809 406.477)" stroke="#3976F4" stroke-width="2" stroke-linecap="round" stroke-linejoin="round"/><circle cx="260.671" cy="398.672" r="39.214" transform="rotate(21.026 260.671 398.672)" fill="#039BE5"/><path d="M253.183 400.626L249.12 409.304C250.027 409.653 250.57 409.414 251.221 409.127L257.039 406.697L263.373 416.542C264.644 418.065 265.966 418.028 267.138 416.282L283.348 391.39L283.35 391.389C284.782 389.195 283.764 387.731 281.963 387.712L242.941 387.66C240.274 387.669 239.811 388.976 241.478 390.29L249.134 396.338L274.193 391.463C275.386 391.199 276.116 391.879 275.163 392.235L253.183 400.626Z" fill="#fff"/></svg>