<svg xmlns="http://www.w3.org/2000/svg" style="border: 0 !important; clip: rect(0 0 0 0) !important; height: 1px !important; margin: -1px !important; overflow: hidden !important; padding: 0 !important; position: absolute !important; width: 1px !important;" class="root-svg-symbols-element">
  <defs>
      <clipPath id="clip0_190_1461"><path fill="currentColor" transform="translate(.19)" d="M0 0H10.284V19.54H0z"/></clipPath>
<clipPath id="clip0_518_5238"><path fill="#fff" transform="rotate(29.824 -251.94 649.044)" d="M0 0H38.174V38.174H0z"/></clipPath><clipPath id="clip1_518_5238"><path fill="#fff" transform="rotate(21.026 -47.873 737.845)" d="M0 0H38.693V38.693H0z"/></clipPath><clipPath id="clip2_518_5238"><path fill="#fff" transform="rotate(36.501 26.856 181.96)" d="M0 0H38.151V38.023H0z"/></clipPath><clipPath id="clip3_518_5238"><path fill="#fff" transform="rotate(-29.202 589.347 -62.072)" d="M0 0H46.651V46.651H0z"/></clipPath><filter id="filter0_d_518_5238" x="20.282" y=".234" width="192.311" height="192.311" filterUnits="userSpaceOnUse" color-interpolation-filters="sRGB"><feFlood flood-opacity="0" result="BackgroundImageFix"/><feColorMatrix in="SourceAlpha" values="0 0 0 0 0 0 0 0 0 0 0 0 0 0 0 0 0 0 127 0" result="hardAlpha"/><feOffset dy="48.565"/><feGaussianBlur stdDeviation="32.053"/><feComposite in2="hardAlpha" operator="out"/><feColorMatrix values="0 0 0 0 0.503531 0 0 0 0 0.507706 0 0 0 0 0.545833 0 0 0 0.08 0"/><feBlend in2="BackgroundImageFix" result="effect1_dropShadow_518_5238"/><feBlend in="SourceGraphic" in2="effect1_dropShadow_518_5238" result="shape"/></filter>
<clipPath id="clip0_565_820"><path fill="#fff" transform="rotate(1.03 -651.248 690.787)" d="M0 0H26.191V26.191H0z"/></clipPath>
<clipPath id="clip0_190_1463"><path fill="currentColor" transform="translate(0 .734)" d="M0 0H17.483V17.483H0z"/></clipPath>
<clipPath id="clip0_565_476"><path fill="#fff" transform="rotate(-29.202 67.96 -10.735)" d="M0 0H36.717V36.717H0z"/></clipPath>
<clipPath id="clip0_190_1443"><path fill="#fff" d="M0 0H180V39H0z"/></clipPath>
<clipPath id="clip0_565_1326"><path fill="#fff" d="M0 0H36V36H0z"/></clipPath>
<clipPath id="clip0_565_1341"><path fill="#fff" d="M0 0H36V36H0z"/></clipPath>
<clipPath id="clip0_565_1336"><path fill="#fff" d="M0 0H36V36H0z"/></clipPath>
<clipPath id="clip0_516_4979"><path fill="#fff" transform="rotate(36.501 8.297 89.92)" d="M0 0H28.365V28.269H0z"/></clipPath><filter id="filter0_d_516_4979" x=".468" y="1.771" width="113.656" height="113.656" filterUnits="userSpaceOnUse" color-interpolation-filters="sRGB"><feFlood flood-opacity="0" result="BackgroundImageFix"/><feColorMatrix in="SourceAlpha" values="0 0 0 0 0 0 0 0 0 0 0 0 0 0 0 0 0 0 127 0" result="hardAlpha"/><feOffset dy="25"/><feGaussianBlur stdDeviation="16.5"/><feComposite in2="hardAlpha" operator="out"/><feColorMatrix values="0 0 0 0 0.503531 0 0 0 0 0.507706 0 0 0 0 0.545833 0 0 0 0.08 0"/><feBlend in2="BackgroundImageFix" result="effect1_dropShadow_516_4979"/><feBlend in="SourceGraphic" in2="effect1_dropShadow_516_4979" result="shape"/></filter>
<clipPath id="clip0_190_1459"><path fill="currentColor" transform="translate(.8 .671)" d="M0 0H26.24V14.995H0z"/></clipPath>
  </defs>
    <symbol id="arrow-down" viewBox="0 0 12 7">
      <path d="M1 1L6 6L11 1" stroke="#3976F4" stroke-width="1.2"/>
    </symbol>
    <symbol id="close-icon" viewBox="0 0 24 24">
      <path d="M6.22517 4.81108C5.83465 4.42056 5.20148 4.42056 4.81096 4.81108C4.42044 5.20161 4.42044 5.83477 4.81096 6.2253L10.5857 12L4.81102 17.7747C4.4205 18.1652 4.42049 18.7984 4.81102 19.1889C5.20154 19.5794 5.83471 19.5794 6.22523 19.1889L11.9999 13.4142L17.7746 19.1889C18.1651 19.5794 18.7983 19.5794 19.1888 19.1889C19.5793 18.7984 19.5793 18.1652 19.1888 17.7747L13.4141 12L19.1889 6.2253C19.5794 5.83477 19.5794 5.20161 19.1889 4.81108C18.7983 4.42056 18.1652 4.42056 17.7746 4.81108L11.9999 10.5858L6.22517 4.81108Z" fill="currentColor"/>
    </symbol>
    <symbol id="fb-icon" viewBox="0 0 11 20">
      <g clip-path="url(#clip0_190_1461)"><path d="M10.0861 0H7.61786C4.84829 0 3.05779 1.88718 3.05779 4.80895V7.02626H0.577207C0.525614 7.02693 0.474659 7.03775 0.427251 7.05812C0.379843 7.07849 0.336912 7.10799 0.300908 7.14495C0.264904 7.18191 0.236533 7.2256 0.217415 7.27352C0.198297 7.32145 0.188808 7.37267 0.189487 7.42426V10.6371C0.188808 10.6887 0.198297 10.7399 0.217415 10.7878C0.236533 10.8357 0.264904 10.8794 0.300908 10.9164C0.336912 10.9534 0.379843 10.9829 0.427251 11.0032C0.474659 11.0236 0.525614 11.0344 0.577207 11.0351H3.05779V19.1412C3.05697 19.1929 3.06636 19.2442 3.08542 19.2923C3.10447 19.3403 3.13282 19.3841 3.16884 19.4212C3.20486 19.4582 3.24784 19.4878 3.29531 19.5083C3.34279 19.5287 3.39383 19.5396 3.44551 19.5402H6.68096C6.73255 19.5396 6.78351 19.5287 6.83091 19.5084C6.87832 19.488 6.92125 19.4585 6.95726 19.4215C6.99326 19.3846 7.02163 19.3409 7.04075 19.293C7.05987 19.245 7.06936 19.1938 7.06868 19.1422V11.0361H9.96886C10.0205 11.0354 10.0714 11.0246 10.1188 11.0043C10.1662 10.9839 10.2092 10.9544 10.2452 10.9174C10.2812 10.8805 10.3095 10.8368 10.3287 10.7889C10.3478 10.7409 10.3573 10.6897 10.3566 10.6381V7.42426C10.3569 7.3192 10.3164 7.21813 10.2435 7.14247C10.2079 7.10552 10.1652 7.0761 10.1181 7.05596C10.0709 7.03581 10.0202 7.02536 9.96886 7.02523H7.06971V5.14217C7.06971 4.2392 7.27539 3.78052 8.42518 3.78052H10.0861C10.1898 3.77917 10.2887 3.73689 10.3613 3.66292C10.4339 3.58895 10.4744 3.48927 10.4738 3.3856V0.402117C10.4749 0.350218 10.4657 0.298615 10.4468 0.250275C10.4279 0.201936 10.3996 0.157813 10.3636 0.120443C10.3275 0.083074 10.2845 0.0531954 10.2369 0.0325254C10.1892 0.0118554 10.138 0.000801768 10.0861 0V0Z" fill="currentColor"/></g>
    </symbol>
    <symbol id="hero-icons-mob" viewBox="0 0 346 338">
      <circle cx="297.069" cy="237.152" r="35.629" transform="rotate(29.824 297.069 237.152)" fill="#1E88E5"/><g clip-path="url(#clip0_518_5238)"><path d="M290.763 246.475L292.742 247.609C292.742 247.609 293.378 247.886 293.871 247.731C294.326 247.59 294.641 247.017 294.641 247.017C294.641 247.017 296.124 244.339 297.582 244.655C299.018 244.966 298.886 248.813 299.889 250.897C300.647 252.473 301.705 252.83 301.705 252.83L306.164 255.303C306.164 255.303 308.56 256.487 308.506 254.039C308.503 253.839 308.638 252.326 307.398 248.348C306.1 244.183 306.233 244.815 312.127 242.277C315.716 240.732 317.479 239.542 317.63 238.689C317.775 237.875 316.176 237.195 316.176 237.195L311.183 234.371C311.183 234.371 310.843 234.11 310.474 234.116C310.115 234.124 309.729 234.398 309.729 234.398C309.729 234.398 307.737 236.045 305.663 237.227C301.287 239.721 300.285 239.411 300.057 238.97C299.527 237.942 300.681 236.417 301.35 235.25C303.443 231.6 304.867 230.396 303.462 229.067C302.994 228.626 302.646 228.311 301.27 227.503C299.505 226.466 297.985 225.628 296.896 225.557C296.17 225.509 295.378 225.877 295.625 226.066C295.929 226.298 296.584 226.882 296.671 227.647C296.785 228.634 295.872 230.184 295.872 230.184C295.872 230.184 293.703 234.648 292.418 234.621C291.535 234.601 291.042 233.326 291.025 228.775C291.015 226.446 291.359 224.071 291.359 224.071C291.359 224.071 291.418 223.627 291.266 223.283C291.081 222.867 290.677 222.536 290.677 222.536L285.928 219.852C285.928 219.852 285.206 219.466 284.768 219.625C284.379 219.767 284.267 220.457 284.267 220.457C284.267 220.457 283.004 231.248 284.692 238.022C286.244 244.234 290.763 246.475 290.763 246.475Z" fill="#fff"/></g><circle cx="273.996" cy="92.759" r="36.934" transform="rotate(21.026 273.996 92.759)" fill="#039BE5"/><g clip-path="url(#clip1_518_5238)"><path d="M266.943 94.5992L263.116 102.773C263.97 103.101 264.482 102.876 265.095 102.606L270.575 100.317L276.541 109.59C277.738 111.024 278.982 110.989 280.086 109.344L295.354 85.8993L295.356 85.8984C296.705 83.8328 295.746 82.4538 294.05 82.4358L257.297 82.3864C254.784 82.3947 254.348 83.6263 255.918 84.8635L263.13 90.5598L286.732 85.9683C287.855 85.7196 288.543 86.3606 287.645 86.6961L266.943 94.5992Z" fill="#fff"/></g><circle cx="54.292" cy="170.345" r="39.625" transform="rotate(-30.662 54.292 170.345)" fill="#6F3FAA"/><path d="M65.2943 152.572L65.2701 152.532C64.0116 151.252 62.1275 150.276 60.0874 149.723C57.7003 149.07 55.1039 148.986 53.0736 149.664L53.036 149.687C47.0591 151.84 41.5454 155.109 36.7878 159.32L36.7502 159.342C33.8372 162.048 32.2803 167.692 33.4009 171.426L33.4251 171.467C35.1063 176.568 37.8777 181.243 41.5468 185.166L41.5691 185.203C43.5216 187.182 46.9746 188.431 50.1623 188.533C51.21 188.577 52.2586 188.471 53.2759 188.217L55.4286 191.848C55.6018 192.137 55.8573 192.368 56.1625 192.512C56.4677 192.656 56.8088 192.705 57.1423 192.655C57.4758 192.604 57.7865 192.455 58.035 192.226C58.2835 191.998 58.4584 191.701 58.5374 191.373L59.9506 185.366C60.773 184.937 61.5906 184.487 62.387 184.014C65.1128 182.397 67.6797 180.526 70.0538 178.427L70.0914 178.404C72.9932 175.701 74.5532 170.055 73.4263 166.325L73.404 166.287C71.7283 161.181 68.961 156.501 65.2943 152.572ZM70.1053 167.327C70.8245 169.77 69.6386 174.045 67.735 175.831C65.2116 178.064 62.4546 180.018 59.5118 181.659C59.4826 181.674 59.4572 181.696 59.4375 181.722C59.4179 181.748 59.4045 181.779 59.3985 181.811L58.3473 186.164L57.2258 190.791C57.2087 190.866 57.1694 190.935 57.1128 190.988C57.0563 191.04 56.9852 191.075 56.9088 191.087C56.8324 191.099 56.7541 191.088 56.6841 191.055C56.6141 191.022 56.5557 190.969 56.5163 190.902L52.9471 184.882C52.9185 184.833 52.8738 184.796 52.8208 184.778C52.7678 184.759 52.7098 184.759 52.657 184.778C52.1355 184.941 51.5948 185.033 51.0489 185.054C48.5971 185.164 45.5107 184.239 44.0556 182.771C40.7412 179.224 38.2365 174.999 36.7146 170.389C35.9979 167.958 37.2031 163.68 39.0892 161.901C43.507 157.993 48.6257 154.958 54.1741 152.957C55.5411 152.511 57.4654 152.612 59.2132 153.101C60.6452 153.494 61.954 154.15 62.7699 154.955C66.0811 158.5 68.5838 162.721 70.1053 167.327Z" fill="#fff"/><path d="M64.8858 170.845C65.0296 172.016 64.7863 173.202 64.1929 174.222C63.9848 174.505 63.7502 174.767 63.4924 175.006C63.0974 175.104 62.7367 175.225 62.3789 175.272C59.4537 175.756 56.4696 175.767 53.541 175.304C52.6628 175.152 51.7962 174.939 50.9475 174.667C48.834 173.966 46.8251 172.981 44.9753 171.742C44.0887 171.161 43.2482 170.515 42.4032 169.876C41.6342 169.294 41.6243 168.219 41.7607 167.363C41.9117 166.554 42.2321 165.787 42.7009 165.111C42.8598 164.862 43.1006 164.678 43.3814 164.589C43.6622 164.5 43.9653 164.512 44.2382 164.623C45.5729 165.048 46.8602 165.61 48.0796 166.299C48.4487 166.491 48.7298 166.818 48.8645 167.211C48.9992 167.605 48.9772 168.035 48.803 168.413C48.7113 168.615 48.6289 168.834 48.5666 169.036C48.492 169.213 48.4491 169.402 48.4399 169.594C48.4378 169.77 48.4765 169.944 48.5527 170.102C48.629 170.261 48.7409 170.399 48.8795 170.507C50.4718 171.814 52.214 172.658 54.1655 172.819C54.8251 172.872 55.4886 172.85 56.1432 172.752C56.5983 172.735 57.0413 172.601 57.4293 172.363C58.0645 171.876 57.8422 170.987 58.0883 170.315C58.2009 170.006 58.4101 169.742 58.6848 169.562C58.9596 169.381 59.2852 169.294 59.6133 169.314C60.3071 169.326 61.0063 169.39 61.7 169.445C62.3795 169.489 63.0563 169.568 63.7273 169.684C64.0255 169.712 64.3046 169.843 64.5162 170.055C64.7278 170.267 64.8586 170.547 64.8858 170.845Z" fill="#fff"/><path d="M49.2591 159.804L48.8577 160.042C48.9826 159.96 49.1211 159.886 49.2591 159.804Z" fill="#6F3FAA"/><path d="M61.767 165.088C61.4534 165.274 61.1418 165.099 60.947 164.82C60.566 164.271 60.1926 163.712 59.7759 163.188C59.0696 162.306 58.1865 161.581 57.1834 161.06C56.1455 160.513 55.0044 160.189 53.8339 160.111C52.6633 160.033 51.4894 160.201 50.3879 160.605C49.8881 160.791 49.416 161.046 48.9335 161.268C48.6264 161.408 48.2359 161.614 47.9613 161.294C47.9107 161.23 47.8744 161.156 47.8547 161.077C47.8351 160.998 47.8325 160.915 47.8472 160.835C47.8618 160.755 47.8935 160.679 47.9399 160.612C47.9863 160.545 48.0465 160.489 48.1164 160.447C48.189 160.398 48.2644 160.354 48.3421 160.313C49.7195 159.513 51.2732 159.064 52.8656 159.007C54.4579 158.95 56.0397 159.286 57.471 159.986C58.6121 160.558 59.6275 161.352 60.4575 162.322C60.9782 162.929 61.4347 163.599 61.897 164.257C61.9478 164.318 61.985 164.39 62.0061 164.466C62.0272 164.543 62.0318 164.623 62.0195 164.702C62.0072 164.781 61.9783 164.856 61.9348 164.922C61.8912 164.989 61.834 165.045 61.767 165.088Z" fill="#fff"/><path d="M59.2023 164.628C59.2557 164.722 59.298 164.823 59.3282 164.927C59.3546 165.033 59.3474 165.146 59.3076 165.248C59.2678 165.351 59.1974 165.439 59.1058 165.5C59.0143 165.561 58.9062 165.593 58.7961 165.591C58.6861 165.588 58.5794 165.552 58.4907 165.487C58.3811 165.38 58.2876 165.259 58.2132 165.126C57.8047 164.42 57.2537 163.807 56.5954 163.326C56.4509 163.225 56.2982 163.125 56.1399 163.037C55.2324 162.529 54.1959 162.3 53.159 162.376C52.5406 162.434 51.9336 162.58 51.3563 162.809C51.1019 162.909 50.8569 163.025 50.6063 163.131C50.5441 163.164 50.4758 163.183 50.4057 163.189C50.3356 163.194 50.2652 163.185 50.1987 163.162C50.1323 163.139 50.0713 163.103 50.0194 163.055C49.9676 163.008 49.9261 162.95 49.8974 162.886C49.861 162.824 49.838 162.756 49.8299 162.685C49.8219 162.614 49.8289 162.542 49.8506 162.474C49.8722 162.406 49.9081 162.343 49.9557 162.29C50.0033 162.237 50.0616 162.194 50.1269 162.165C51.0686 161.655 52.1101 161.355 53.1791 161.288C54.4801 161.198 55.7763 161.521 56.8832 162.211C57.5188 162.62 58.084 163.129 58.5569 163.718C58.6236 163.792 58.6864 163.87 58.7451 163.95C58.8723 164.129 58.9901 164.313 59.1434 164.536C59.1564 164.558 59.1762 164.584 59.2023 164.628Z" fill="#6F3FAA"/><path d="M56.8004 165.47C56.8298 165.56 56.8315 165.657 56.8054 165.748C56.7793 165.839 56.7265 165.92 56.6539 165.98L56.5849 166.021C56.4862 166.089 56.368 166.122 56.2485 166.117C56.129 166.111 56.0145 166.067 55.9225 165.99C55.8725 165.95 55.8279 165.904 55.79 165.853C55.6484 165.651 55.4928 165.461 55.3242 165.281C54.9831 164.918 54.525 164.687 54.0304 164.629C53.7959 164.608 53.5597 164.628 53.3318 164.687C53.0414 164.762 52.7923 164.935 52.5124 165.02C52.3788 165.071 52.2308 165.066 52.1007 165.007C51.9706 164.948 51.869 164.841 51.8183 164.707C51.7729 164.577 51.7764 164.436 51.828 164.308C51.8797 164.181 51.9759 164.077 52.0988 164.015C53.5962 163.267 55.0775 163.321 56.2662 164.697C56.3793 164.824 56.4849 164.956 56.5823 165.095C56.6733 165.208 56.7468 165.335 56.8004 165.47Z" fill="#fff"/><g filter="url(#filter0_d_518_5238)"><circle cx="116.437" cy="47.824" r="32.047" transform="rotate(36.501 116.437 47.824)" fill="#2CB742"/></g><g clip-path="url(#clip2_518_5238)"><path fill-rule="evenodd" clip-rule="evenodd" d="M135.234 43.696C134.53 39.0217 132.047 34.8958 128.237 32.0741C120.384 26.263 109.28 27.903 103.484 35.7291C101.631 38.2308 100.479 41.1591 100.132 44.235L92.6665 50.0969L101.68 53.7113C102.924 56.3827 104.826 58.7126 107.21 60.4777L107.215 60.4821C115.067 66.2925 126.173 64.6526 131.969 56.826C134.778 53.0331 135.938 48.3703 135.234 43.696ZM108.99 58.084L108.985 58.0804C106.861 56.5072 105.198 54.3961 104.175 51.9754L103.932 51.3997L98.5834 49.2549L103.002 45.7852L103.051 45.1303C103.256 42.3741 104.237 39.7391 105.888 37.51C110.706 31.0051 119.936 29.6423 126.467 34.4757C129.629 36.8173 131.693 40.2466 132.278 44.1317C132.863 48.0169 131.899 51.8925 129.565 55.0452C124.746 61.5504 115.517 62.9139 108.99 58.084ZM122.026 54.0518C121.801 53.6107 120.686 51.4575 120.447 51.0974C120.209 50.7377 120.015 50.503 119.515 50.6826C119.015 50.8619 117.741 51.1564 117.359 51.2393C116.976 51.3223 116.746 51.1986 116.522 50.7574C116.297 50.3164 115.427 49.0929 114.962 46.8779C114.6 45.1542 114.745 43.4637 114.8 42.9549C114.856 42.4461 115.19 42.4248 115.492 42.3465C116.23 42.1547 116.986 41.9402 117.28 41.7914C117.574 41.6425 117.668 41.3912 117.71 41.1478C117.753 40.9045 118.333 38.6314 118.562 37.7014C118.785 36.7959 118.423 36.6723 118.212 36.4996C118.012 36.3358 117.776 36.158 117.539 35.9823C117.302 35.8068 116.85 35.61 116.261 35.7238C115.672 35.8376 114.117 36.0154 112.825 37.7617C111.533 39.5079 111.56 42.1389 111.563 42.5073C111.565 42.8758 111.246 48.1853 113.68 52.3643C114.258 53.3587 114.76 54.0674 115.156 54.6136C115.809 55.5147 116.613 56.0507 117.294 56.4134C118.054 56.8176 120.035 57.1134 120.945 56.5045C121.855 55.8952 122.381 55.1849 122.401 54.9708C122.422 54.7572 122.25 54.4928 122.026 54.0518Z" fill="#fff"/></g><circle cx="136.931" cy="288.625" r="36.284" transform="rotate(-29.202 136.931 288.625)" fill="#3976F4"/><g clip-path="url(#clip3_518_5238)"><path d="M127.826 272.349C118.83 277.377 115.316 288.213 119.976 296.552C122.631 301.302 127.366 304.216 132.612 304.916L135.654 310.202C135.818 310.488 136.229 310.493 136.4 310.21L139.872 304.478C141.515 304.06 143.141 303.419 144.704 302.546C153.7 297.518 157.215 286.682 152.554 278.343C147.893 270.005 136.822 267.322 127.826 272.349ZM140.222 291.623L134.715 289.945C134.392 289.847 134.043 289.976 133.862 290.26L129.591 296.965C129.429 297.22 129.034 297.05 129.107 296.756L132.049 285.069C132.134 284.733 132.483 284.538 132.813 284.642L138.358 286.391C138.683 286.494 139.037 286.364 139.219 286.075L143.396 279.45C143.558 279.194 143.954 279.364 143.88 279.658L140.98 291.195C140.896 291.528 140.551 291.723 140.222 291.623Z" fill="#fff"/></g>
    </symbol>
    <symbol id="how-1-icon" viewBox="0 0 173 26">
      <path d="M13 13L159 13" stroke="#3976F4" stroke-width="2" stroke-dasharray="4 4"/><circle cx="13" cy="13" r="13" fill="#3976F4"/><circle cx="160" cy="13" r="13" fill="#3976F4"/><circle cx="13" cy="13" r="5" fill="#fff"/><circle cx="160" cy="13" r="5" fill="#fff"/>
    </symbol>
    <symbol id="how-2-icon" viewBox="0 0 126 26">
      <path d="M13 13L112 13" stroke="#3976F4" stroke-width="2" stroke-dasharray="4 4"/><circle cx="13" cy="13" r="13" fill="#3976F4"/><circle cx="113" cy="13" r="13" fill="#3976F4"/><circle cx="13" cy="13" r="5" fill="#fff"/><circle cx="113" cy="13" r="5" fill="#fff"/>
    </symbol>
    <symbol id="how-3-icon" viewBox="0 0 795 130">
      <path d="M794 0.5V4.5C794 26.5914 776.091 44.5 754 44.5H41.5C19.4086 44.5 1.5 62.4086 1.5 84.5V89C1.5 111.091 19.4086 129 41.5 129H81.5" stroke="#3976F4" stroke-width="2" stroke-dasharray="4 4"/>
    </symbol>
    <symbol id="how-4-icon" viewBox="0 0 173 26">
      <path d="M13 13L159 13" stroke="#3976F4" stroke-width="2" stroke-dasharray="4 4"/><circle cx="160" cy="13" r="13" fill="#3976F4"/><circle cx="160" cy="13" r="5" fill="#fff"/><circle cx="13" cy="13" r="13" fill="#3976F4"/><circle cx="13" cy="13" r="5" fill="#fff"/>
    </symbol>
    <symbol id="how-5-icon" viewBox="0 0 126 26">
      <path d="M13 13L112 13" stroke="#3976F4" stroke-width="2" stroke-dasharray="4 4"/><circle cx="13" cy="13" r="13" fill="#3976F4"/><circle cx="113" cy="13" r="13" fill="#3976F4"/><circle cx="13" cy="13" r="5" fill="#fff"/><circle cx="113" cy="13" r="5" fill="#fff"/>
    </symbol>
    <symbol id="how-6-icon" viewBox="0 0 647 140">
      <path d="M646 0V4C646 26.0914 628.091 44 606 44H41C18.9086 44 1 61.9086 1 84V87C1 109.091 18.9086 127 41 127H81.5" stroke="#3976F4" stroke-width="2" stroke-dasharray="4 4"/><circle cx="80" cy="127" r="13" fill="#3976F4"/><circle cx="80" cy="127" r="5" fill="#fff"/>
    </symbol>
    <symbol id="how-bg" viewBox="0 0 52 52">
      <circle cx="26.351" cy="25.763" r="25" transform="rotate(1.03 26.351 25.763)" fill="#039BE5"/><g clip-path="url(#clip0_565_820)"><path d="M22.2911 28.5664L21.7484 34.6513C22.3681 34.6624 22.6413 34.401 22.969 34.0871L25.9245 31.3625L31.8659 35.8799C32.959 36.5151 33.7428 36.205 34.0641 34.9033L38.349 16.4563L38.3501 16.4552C38.7297 14.8292 37.8007 14.174 36.7176 14.5551L13.3283 23.031C11.7319 23.6178 11.74 24.5021 13.0247 24.9257L18.9303 26.8797L32.8802 18.4961C33.5371 18.0779 34.1231 18.3263 33.6299 18.7475L22.2911 28.5664Z" fill="#fff"/></g>
    </symbol>
    <symbol id="instagram-icon" viewBox="0 0 18 19">
      <g clip-path="url(#clip0_190_1463)"><path fill-rule="evenodd" clip-rule="evenodd" d="M5.46407 0.734375H12.0203C13.4693 0.734648 14.8589 1.31044 15.8833 2.33513C16.9078 3.35981 17.4834 4.74946 17.4834 6.19844V12.7547C17.4831 14.2035 16.9074 15.5929 15.883 16.6174C14.8585 17.6418 13.4691 18.2175 12.0203 18.2177H5.46407C4.01508 18.2177 2.62543 17.6422 1.60075 16.6177C0.576069 15.5932 0.000272724 14.2037 0 12.7547V6.19844C0 4.74928 0.575677 3.35947 1.60039 2.33476C2.6251 1.31005 4.01491 0.734375 5.46407 0.734375ZM8.74168 13.8469C9.90049 13.8455 11.0114 13.3846 11.8308 12.5652C12.6502 11.7458 13.1112 10.6349 13.1125 9.47606C13.1112 8.31726 12.6502 7.20631 11.8308 6.38691C11.0114 5.56751 9.90049 5.10658 8.74168 5.10522C7.58288 5.10658 6.47193 5.56751 5.65253 6.38691C4.83314 7.20631 4.3722 8.31726 4.37084 9.47606C4.3722 10.6349 4.83314 11.7458 5.65253 12.5652C6.47193 13.3846 7.58288 13.8455 8.74168 13.8469ZM8.74168 6.74454C9.46588 6.74536 10.1602 7.0334 10.6723 7.54548C11.1843 8.05757 11.4724 8.75187 11.4732 9.47606C11.4727 10.2004 11.1847 10.895 10.6726 11.4073C10.1605 11.9196 9.46605 12.2078 8.74168 12.2086C8.01722 12.2078 7.32266 11.9196 6.81038 11.4074C6.29811 10.8951 6.00995 10.2005 6.00914 9.47606C6.00995 8.75169 6.29814 8.05723 6.81044 7.54512C7.32275 7.03301 8.01731 6.74508 8.74168 6.74454ZM4.91693 4.55911C4.91693 4.86071 4.67244 5.10521 4.37084 5.10521C4.06923 5.10521 3.82474 4.86071 3.82474 4.55911C3.82474 4.2575 4.06923 4.01301 4.37084 4.01301C4.67244 4.01301 4.91693 4.2575 4.91693 4.55911Z" fill="currentColor"/></g>
    </symbol>
    <symbol id="know-bg" viewBox="0 0 50 78">
      <circle cx="38.861" cy="38.861" r="28.557" transform="rotate(-29.202 38.86 38.86)" fill="#3976F4"/><g clip-path="url(#clip0_565_476)"><path d="M31.6943 26.0507C24.6141 30.008 21.8479 38.5364 25.516 45.0993C27.6056 48.8379 31.3321 51.1313 35.4612 51.682L37.8549 55.8429C37.984 56.0677 38.3075 56.0716 38.4419 55.8492L41.1748 51.3379C42.4682 51.0082 43.7479 50.5042 44.9779 49.8167C52.0581 45.8594 54.8244 37.331 51.1563 30.7681C47.4881 24.2052 38.7745 22.0935 31.6943 26.0507ZM41.4502 41.2202L37.1159 39.8997C36.8618 39.8221 36.5873 39.9234 36.4446 40.1474L33.0833 45.4243C32.9553 45.625 32.6446 45.4912 32.7027 45.2602L35.018 36.0613C35.0846 35.7974 35.3593 35.6439 35.6188 35.7259L39.9829 37.1018C40.2395 37.183 40.5177 37.081 40.6612 36.8531L43.9484 31.6395C44.0759 31.4378 44.3878 31.5714 44.3296 31.8029L42.0467 40.8831C41.9807 41.145 41.709 41.2986 41.4502 41.2202Z" fill="#fff"/></g>
    </symbol>
    <symbol id="logo-second" viewBox="0 0 180 39">
      <g clip-path="url(#clip0_190_1443)"><path d="M153.677 8.63839V38.6586H150.117V16.6041C150.117 16.3116 150.117 15.9996 150.117 15.6291C150.117 15.2586 150.117 14.9564 150.185 14.6541L139.942 33.4034C139.823 33.6948 139.619 33.9437 139.357 34.1175C139.095 34.2914 138.787 34.3823 138.473 34.3784H137.889C137.577 34.3803 137.271 34.2885 137.011 34.1148C136.751 33.941 136.548 33.6933 136.43 33.4034L125.934 14.5469C126.016 15.2296 126.059 15.9165 126.06 16.6041V38.6586H122.51V8.63839H125.496C125.779 8.62908 126.061 8.66529 126.333 8.74564C126.583 8.86945 126.782 9.07617 126.897 9.33064L137.247 27.8556C137.412 28.1969 137.578 28.5479 137.733 28.9086C137.889 29.2694 138.045 29.6399 138.181 30.0201C138.327 29.6399 138.473 29.2694 138.628 28.8989C138.772 28.5349 138.938 28.18 139.125 27.8361L149.28 9.33064C149.386 9.07343 149.584 8.86492 149.835 8.74564C150.109 8.66604 150.395 8.62985 150.681 8.63839H153.677Z" fill="#fff"/><path d="M165.38 35.3828V24.921H176.742L176.869 23.8583V21.7815H165.38V11.8365H180.001V8.70679H161.207V38.5223H173.551L174.33 35.3828H165.38Z" fill="#fff"/><path d="M179.777 38.6685V38.5417L179.689 38.6685H179.777Z" fill="#fff"/><path d="M112.646 12.6067C111.322 11.2502 109.728 10.1873 107.967 9.48673C106.195 8.76991 104.305 8.3897 102.394 8.36548L99.5531 12.0997C100.342 11.9485 101.143 11.8734 101.946 11.8755C103.448 11.8543 104.939 12.1327 106.333 12.6945C107.604 13.2182 108.746 14.0134 109.68 15.0247C110.635 16.1082 111.36 17.3755 111.81 18.7492C112.329 20.3512 112.582 22.0278 112.559 23.712C112.582 25.393 112.329 27.0664 111.81 28.665C111.356 30.0342 110.632 31.2977 109.68 32.3797C108.748 33.3911 107.606 34.1835 106.333 34.7002C103.514 35.7768 100.398 35.7768 97.5784 34.7002C96.3058 34.1835 95.1631 33.3911 94.232 32.3797C93.2703 31.2877 92.5479 30.0056 92.1114 28.6162C91.5923 27.0176 91.3392 25.3442 91.3624 23.6632C91.3624 23.3805 91.3624 23.1172 91.3624 22.8442L87.6367 27.7192C87.7799 28.4441 87.9749 29.1577 88.2204 29.8545C88.88 31.668 89.9029 33.327 91.2262 34.7295C92.5448 36.0985 94.1356 37.1747 95.8955 37.8885C99.7711 39.3839 104.063 39.3839 107.938 37.8885C109.702 37.1772 111.297 36.1007 112.617 34.7295C113.941 33.327 114.963 31.668 115.623 29.8545C116.353 27.8732 116.715 25.7751 116.693 23.6632C116.715 21.5514 116.353 19.4532 115.623 17.472C114.959 15.6606 113.937 14.0024 112.617 12.597" fill="#fff"/><path d="M82.5478 33.9982C82.0187 34.3464 81.4506 34.6311 80.8552 34.8465C80.2253 35.0781 79.5734 35.2447 78.9097 35.3437C78.1104 35.4549 77.3041 35.507 76.4972 35.4997C75.0955 35.5128 73.7056 35.2408 72.4116 34.7002C71.1616 34.183 70.0418 33.3937 69.1334 32.3895C68.162 31.3097 67.4147 30.0469 66.935 28.6747C66.3753 27.0645 66.102 25.3682 66.1276 23.6632C66.1039 21.9767 66.3671 20.2984 66.9058 18.7005C67.3682 17.323 68.1026 16.053 69.0653 14.9662C69.9861 13.9539 71.1189 13.1582 72.3825 12.636C73.7025 12.0905 75.1181 11.8154 76.5459 11.8267C77.6399 11.8016 78.7316 11.9396 79.7852 12.2362C80.5469 12.4627 81.2835 12.7665 81.9836 13.143C82.4727 13.4234 82.9468 13.7293 83.4039 14.0595C83.6584 14.2885 83.9782 14.4318 84.3183 14.469C84.506 14.4762 84.6918 14.4288 84.8533 14.3325C84.9876 14.2439 85.0979 14.1233 85.1743 13.9815L86.5167 12.1192C85.2601 10.9365 83.8001 9.99174 82.2074 9.33074C80.4128 8.61885 78.4951 8.27088 76.5653 8.30699C74.5262 8.27964 72.5022 8.66085 70.612 9.42824C68.8645 10.1393 67.2865 11.2125 65.9817 12.5775C64.6582 13.9798 63.6352 15.6389 62.9758 17.4525C62.2628 19.4436 61.9168 21.5481 61.9544 23.6632C61.9143 25.7777 62.2436 27.883 62.9272 29.8837C63.563 31.6889 64.5556 33.3469 65.8455 34.7587C67.101 36.1168 68.6339 37.1877 70.3397 37.8982C72.189 38.6654 74.1749 39.0469 76.1762 39.0195C77.097 39.0197 78.0167 38.9578 78.9291 38.8342L82.6646 33.9592L82.5186 34.0567" fill="#fff"/><path opacity=".99" d="M43.6584 6.7275C39.4797 3.62486 34.7534 1.34226 29.7284 0L21.7031 34.0568L21.849 34.125L43.6584 6.7275Z" fill="#3976F4"/><path d="M56.8969 17.5208C56.2329 15.7476 55.2056 14.1335 53.8813 12.7823C52.5596 11.441 50.9678 10.3973 49.2121 9.72085C47.963 9.22732 46.6549 8.89955 45.321 8.74585L42.8016 11.9048H43.2101C44.7126 11.8841 46.2052 12.1522 47.607 12.6946C48.8773 13.2057 50.0173 13.9952 50.9436 15.0053C51.9034 16.0707 52.6292 17.3264 53.0739 18.6909C53.6019 20.2842 53.8584 21.9553 53.8327 23.6341C53.8584 25.3129 53.6019 26.984 53.0739 28.5773C52.6315 29.9399 51.9053 31.1928 50.9436 32.2531C50.0191 33.2605 48.8781 34.044 47.607 34.5443C46.2072 35.0948 44.7137 35.3664 43.2101 35.3438H36.0603V20.3776L32.0039 25.4671V38.6588H43.181C45.2406 38.6834 47.2866 38.3196 49.2121 37.5863C50.9731 36.9094 52.5697 35.8634 53.895 34.5182C55.2202 33.1731 56.2437 31.5598 56.8969 29.7863C57.6277 27.826 57.9873 25.7461 57.9572 23.6536C57.985 21.5612 57.6255 19.4818 56.8969 17.5208Z" fill="#fff"/><path d="M21.7315 22.8149L16.07 8.63843H11.9747L0 38.6587H3.1323C3.45251 38.6686 3.76595 38.565 4.01751 38.3662C4.23305 38.1922 4.39773 37.9632 4.49416 37.7032L7.29572 30.4492H19.9416L21.7315 22.8149ZM13.1226 15.3367C13.4868 14.4155 13.7891 13.4709 14.0272 12.5092C14.1634 13.0552 14.3093 13.5622 14.465 14.0497C14.6206 14.5372 14.7665 14.9467 14.9027 15.3172L19.6109 27.5242H8.45331L13.1226 15.3367Z" fill="#fff"/><path d="M23.123 36.621L23.5413 37.7032C23.6423 37.9714 23.8137 38.2072 24.0374 38.3857C24.2875 38.5784 24.598 38.6752 24.9129 38.6587H28.055L25.8662 33.1792L23.123 36.621Z" fill="#fff"/></g>
    </symbol>
    <symbol id="logo" viewBox="0 0 140 31">
      <path d="M118.485 6.64502V29.7375H115.74V12.7725C115.74 12.5475 115.74 12.3075 115.74 12.0225C115.74 11.7375 115.74 11.505 115.793 11.2725L107.895 25.695C107.803 25.9192 107.646 26.1106 107.444 26.2444C107.242 26.3781 107.005 26.448 106.763 26.445H106.313C106.072 26.4465 105.836 26.3759 105.635 26.2422C105.435 26.1086 105.279 25.918 105.188 25.695L97.0951 11.19C97.1587 11.7151 97.1912 12.2436 97.1926 12.7725V29.7375H94.4551V6.64502H96.7576C96.9756 6.63786 97.1934 6.66571 97.4026 6.72752C97.5952 6.82276 97.7489 6.98177 97.8376 7.17752L105.818 21.4275C105.945 21.69 106.073 21.96 106.193 22.2375C106.313 22.515 106.433 22.8 106.538 23.0925C106.65 22.8 106.763 22.515 106.883 22.23C106.993 21.95 107.121 21.677 107.265 21.4125L115.095 7.17752C115.177 6.97967 115.329 6.81927 115.523 6.72752C115.734 6.66628 115.955 6.63845 116.175 6.64502H118.485Z" fill="#222"/><path d="M127.507 27.2174V19.1699H136.267L136.364 18.3524V16.7549H127.507V9.10489H138.779V6.69739H124.289V29.6324H133.807L134.407 27.2174H127.507Z" fill="#222"/><path d="M138.607 29.7451V29.6476L138.539 29.7451H138.607Z" fill="#222"/><path d="M86.8509 9.69756C85.8294 8.65408 84.6005 7.83647 83.2434 7.29756C81.8767 6.74616 80.4194 6.45369 78.9459 6.43506L76.7559 9.30756C77.3639 9.19125 77.9818 9.13349 78.6009 9.13506C79.759 9.11879 80.9088 9.33294 81.9834 9.76506C82.9634 10.1679 83.8439 10.7797 84.5634 11.5576C85.2999 12.391 85.8588 13.3659 86.2059 14.4226C86.606 15.6549 86.8011 16.9445 86.7834 18.2401C86.8013 19.5331 86.6062 20.8204 86.2059 22.0501C85.8561 23.1033 85.2975 24.0752 84.5634 24.9076C83.8455 25.6855 82.9645 26.2951 81.9834 26.6926C79.8096 27.5207 77.4072 27.5207 75.2334 26.6926C74.2523 26.2951 73.3712 25.6855 72.6534 24.9076C71.9119 24.0675 71.3549 23.0813 71.0184 22.0126C70.6181 20.7829 70.423 19.4956 70.4409 18.2026C70.4409 17.9851 70.4409 17.7826 70.4409 17.5726L67.5684 21.3226C67.6787 21.8801 67.8291 22.4291 68.0184 22.9651C68.5269 24.3601 69.3156 25.6362 70.3359 26.7151C71.3525 27.7681 72.579 28.596 73.9359 29.1451C76.924 30.2954 80.2327 30.2954 83.2209 29.1451C84.581 28.5979 85.8102 27.7699 86.8284 26.7151C87.8486 25.6362 88.6373 24.3601 89.1459 22.9651C89.7085 21.441 89.9881 19.827 89.9709 18.2026C89.9881 16.5781 89.7085 14.9641 89.1459 13.4401C88.6339 12.0467 87.8456 10.7712 86.8284 9.69006" fill="#222"/><path d="M63.6456 26.1525C63.2377 26.4203 62.7997 26.6393 62.3406 26.805C61.8549 26.9832 61.3523 27.1113 60.8406 27.1875C60.2244 27.273 59.6027 27.3131 58.9806 27.3075C57.8999 27.3176 56.8283 27.1083 55.8306 26.6925C54.8668 26.2947 54.0035 25.6875 53.3031 24.915C52.5542 24.0844 51.978 23.113 51.6081 22.0575C51.1766 20.8189 50.9659 19.5141 50.9856 18.2025C50.9674 16.9052 51.1703 15.6142 51.5856 14.385C51.9421 13.3254 52.5084 12.3485 53.2506 11.5125C53.9606 10.7338 54.8339 10.1217 55.8081 9.72002C56.8259 9.30043 57.9173 9.08878 59.0181 9.09752C59.8617 9.07817 60.7034 9.18433 61.5156 9.41252C62.1029 9.58673 62.6709 9.82045 63.2106 10.11C63.5877 10.3257 63.9532 10.561 64.3057 10.815C64.5019 10.9912 64.7485 11.1014 65.0106 11.13C65.1554 11.1356 65.2987 11.0991 65.4232 11.025C65.5267 10.9569 65.6117 10.8641 65.6707 10.755L66.7057 9.32252C65.7368 8.41272 64.6111 7.68598 63.3831 7.17752C61.9995 6.62991 60.521 6.36224 59.0331 6.39002C57.461 6.36898 55.9004 6.66222 54.4431 7.25252C53.0958 7.79948 51.8792 8.62502 50.8731 9.67502C49.8527 10.7537 49.064 12.0299 48.5556 13.425C48.0059 14.9567 47.7391 16.5755 47.7681 18.2025C47.7372 19.8291 47.991 21.4485 48.5181 22.9875C49.0084 24.3761 49.7736 25.6515 50.7681 26.7375C51.7361 27.7822 52.918 28.6059 54.2331 29.1525C55.659 29.7426 57.1901 30.0361 58.7332 30.015C59.443 30.0152 60.1521 29.9676 60.8556 29.8725L63.7357 26.1225L63.6231 26.1975" fill="#222"/><path opacity=".99" d="M33.6599 5.175C30.4382 2.78836 26.7942 1.03251 22.9199 0L16.7324 26.1975L16.8449 26.25L33.6599 5.175Z" fill="#3976F4"/><path d="M43.8663 13.4774C43.3544 12.1134 42.5623 10.8717 41.5413 9.83242C40.5223 8.80059 39.295 7.99777 37.9413 7.47742C36.9783 7.09778 35.9697 6.84564 34.9413 6.72742L32.9988 9.15742H33.3138C34.4723 9.14149 35.623 9.34771 36.7038 9.76492C37.6832 10.1581 38.5622 10.7654 39.2763 11.5424C40.0164 12.3619 40.5759 13.3278 40.9188 14.3774C41.3259 15.6031 41.5236 16.8886 41.5038 18.1799C41.5236 19.4713 41.3259 20.7567 40.9188 21.9824C40.5777 23.0306 40.0178 23.9943 39.2763 24.8099C38.5635 25.5848 37.6838 26.1875 36.7038 26.5724C35.6246 26.9958 34.4731 27.2047 33.3138 27.1874H27.8013V15.6749L24.6738 19.5899V29.7374H33.2913C34.8793 29.7563 36.4568 29.4765 37.9413 28.9124C39.2991 28.3917 40.53 27.5871 41.5518 26.5523C42.5736 25.5176 43.3627 24.2766 43.8663 22.9124C44.4298 21.4044 44.707 19.8046 44.6838 18.1949C44.7053 16.5854 44.4281 14.9859 43.8663 13.4774Z" fill="#222"/><path d="M16.755 17.5501L12.39 6.64514H9.2325L0 29.7376H2.415C2.66188 29.7452 2.90355 29.6656 3.0975 29.5126C3.26368 29.3788 3.39065 29.2026 3.465 29.0026L5.625 23.4226H15.375L16.755 17.5501ZM10.1175 11.7976C10.3983 11.089 10.6314 10.3624 10.815 9.62264C10.92 10.0426 11.0325 10.4326 11.1525 10.8076C11.2725 11.1826 11.385 11.4976 11.49 11.7826L15.12 21.1726H6.5175L10.1175 11.7976Z" fill="#222"/><path d="M17.8262 28.1701L18.1487 29.0026C18.2265 29.2089 18.3587 29.3903 18.5312 29.5276C18.7239 29.6758 18.9633 29.7503 19.2062 29.7376H21.6287L19.9412 25.5226L17.8262 28.1701Z" fill="#222"/>
    </symbol>
    <symbol id="menu-icon" viewBox="0 0 17 14">
      <path stroke="#3976F4" stroke-width="2" stroke-linecap="round" d="M1 1L16 1"/><path stroke="#3976F4" stroke-width="2" stroke-linecap="round" d="M1 7L16 7"/><path stroke="#3976F4" stroke-width="2" stroke-linecap="round" d="M1 13L16 13"/>
    </symbol>
    <symbol id="products-1-icon" viewBox="0 0 36 36">
      <path d="M24.8927 2.22339H4.07109C1.82602 2.22339 0 4.0494 0 6.29448V24.5406C0 25.4047 0.977273 25.8918 1.66711 25.3991L7.46578 21.2619C7.95234 20.9153 8.52469 20.7317 9.12234 20.7317H21.8763C24.1214 20.7317 25.9474 18.9057 25.9474 16.6607V3.27808C25.9474 2.69589 25.4749 2.22339 24.8927 2.22339ZM19.7698 14.9999H7.58391C7.00172 14.9999 6.52922 14.5281 6.52922 13.9452C6.52922 13.363 7.00172 12.8905 7.58391 12.8905H19.7698C20.352 12.8905 20.8245 13.363 20.8245 13.9452C20.8245 14.5281 20.352 14.9999 19.7698 14.9999ZM19.7698 10.078H7.58391C7.00172 10.078 6.52922 9.6062 6.52922 9.02331C6.52922 8.44112 7.00172 7.96862 7.58391 7.96862H19.7698C20.352 7.96862 20.8245 8.44112 20.8245 9.02331C20.8245 9.6062 20.352 10.078 19.7698 10.078Z" fill="currentColor"/><path opacity=".5" d="M35.9982 14.4754V32.7208C35.9982 33.5791 35.0259 34.0755 34.3311 33.5793L28.5324 29.4428C28.0459 29.0961 27.4735 28.9126 26.8759 28.9126H14.1219C11.8768 28.9126 10.0508 27.0859 10.0508 24.8408V22.8411H21.8745C25.2826 22.8411 28.055 20.0687 28.055 16.6607V10.4036H31.9271C34.1722 10.4036 35.9982 12.2303 35.9982 14.4754Z" fill="currentColor"/>
    </symbol>
    <symbol id="products-2-icon" viewBox="0 0 36 36">
      <g clip-path="url(#clip0_565_1326)"><path d="M11.5714 27.6429V23.5286L4.53536 19.7769C4.11786 19.5529 3.85734 19.1176 3.85734 18.6438C3.85734 18.1701 4.11786 17.7347 4.53536 17.5108L11.5714 13.7571V9.64286C11.5736 7.5135 13.2992 5.78784 15.4286 5.78571H20.5714V2.57143C20.5714 1.15127 19.4202 0 18 0H17.7544L16.3588 2.79129C16.0339 3.44621 15.3651 3.85954 14.634 3.85714H5.93743C5.20637 3.85954 4.5375 3.44621 4.21264 2.79129L2.817 0H2.57143C1.15127 0 0 1.15127 0 2.57143V33.4286C0 34.8487 1.15127 36 2.57143 36H18C19.4202 36 20.5714 34.8487 20.5714 33.4286V31.5H15.4286C13.2992 31.4979 11.5736 29.7722 11.5714 27.6429ZM16.0714 34.0714C16.0714 34.4265 15.7836 34.7143 15.4286 34.7143H5.14286C4.78782 34.7143 4.5 34.4265 4.5 34.0714C4.5 33.7164 4.78782 33.4286 5.14286 33.4286H15.4286C15.7836 33.4286 16.0714 33.7164 16.0714 34.0714Z" fill="currentColor"/><path d="M33.4303 7.07129H15.4303C14.0101 7.07129 12.8588 8.22256 12.8588 9.64272V14.1427C12.859 14.3802 12.7283 14.5985 12.5188 14.7104L5.14453 18.6427L12.5207 22.5738C12.7299 22.6864 12.8599 22.9052 12.8588 23.1427V27.6427C12.8588 29.0629 14.0101 30.2142 15.4303 30.2142H33.4303C34.8504 30.2142 36.0017 29.0629 36.0017 27.6427V9.64272C36.0017 8.22256 34.8504 7.07129 33.4303 7.07129ZM32.5303 23.9142C32.2886 24.2393 31.9068 24.4302 31.5017 24.4284H27.6446C27.6446 26.2036 26.2055 27.6427 24.4303 27.6427C22.6551 27.6427 21.216 26.2036 21.216 24.4284H17.3588C16.9541 24.4284 16.5731 24.2379 16.3303 23.9142C16.0874 23.5904 16.0112 23.1712 16.1245 22.7827L17.7278 18.0204C17.9102 17.3868 18.0024 16.7306 18.0017 16.0713C18.0017 12.5209 20.8799 9.64272 24.4303 9.64272C27.9807 9.64272 30.8588 12.5209 30.8588 16.0713C30.8587 16.7394 30.9535 17.4041 31.1404 18.0455L32.7283 22.757L32.736 22.7827C32.8511 23.1711 32.7747 23.5911 32.5303 23.9142Z" fill="#C4D6FC"/><path d="M24.4286 26.357C25.4937 26.357 26.3571 25.4936 26.3571 24.4285H22.5C22.5 25.4936 23.3635 26.357 24.4286 26.357Z" fill="currentColor"/><path d="M29.5697 16.0716C29.5697 13.2312 27.2671 10.9287 24.4268 10.9287C21.5865 10.9287 19.2839 13.2312 19.2839 16.0716C19.2841 16.8617 19.1718 17.6479 18.9503 18.4064L17.3477 23.1681L21.8181 23.1604C21.8854 23.1494 21.954 23.1494 22.0212 23.1604L26.9487 23.152C26.9678 23.151 26.9869 23.151 27.006 23.152L31.4982 23.143L29.9117 18.4315C29.6854 17.6652 29.5703 16.8705 29.5697 16.0716Z" fill="currentColor"/><path d="M5.93691 2.57143H14.6335C14.8772 2.57221 15.1001 2.43432 15.2082 2.21593L16.3165 0H4.25391L5.36219 2.21593C5.47031 2.43432 5.69322 2.57221 5.93691 2.57143Z" fill="currentColor"/></g>
    </symbol>
    <symbol id="products-3-icon" viewBox="0 0 36 36">
      <g clip-path="url(#clip0_565_1341)"><path d="M30.2831 14.0353C33.4357 14.0353 36.0002 11.4708 36.0002 8.31857C36.0002 5.16632 33.4357 2.60156 30.2831 2.60156C27.1309 2.60156 24.5664 5.16632 24.5664 8.31857C24.5664 11.4708 27.1309 14.0353 30.2831 14.0353ZM29.2285 5.8222H31.3381V10.8147H29.2285V5.8222Z" fill="#C4D6FC"/><path d="M30.283 16.1447C25.9676 16.1447 22.4566 12.6341 22.4566 8.31863C22.4566 7.33344 22.6401 6.39026 22.9741 5.52124H4.20447C1.88608 5.52124 0 7.40732 0 9.72571V23.226C0 25.5444 1.88608 27.4307 4.20447 27.4307H5.3421V33.4694L14.3622 27.4307H26.1054C28.4238 27.4307 30.3099 25.5444 30.3099 23.226V16.1445C30.3011 16.1445 30.2921 16.1447 30.283 16.1447ZM21.9413 20.1729H8.92145V18.0632H21.9413V20.1729ZM21.9413 15.0623H8.92145V12.9527H21.9413V15.0623Z" fill="currentColor"/></g>
    </symbol>
    <symbol id="products-4-icon" viewBox="0 0 36 36">
      <g clip-path="url(#clip0_565_1336)"><path d="M21.0086 22.0566C20.113 22.6537 19.0726 22.9693 18 22.9693C16.9275 22.9693 15.8871 22.6537 14.9915 22.0566L0.239695 12.2218C0.157852 12.1672 0.0781172 12.1103 0 12.0518V28.1673C0 30.0149 1.49941 31.4813 3.31404 31.4813H32.6859C34.5336 31.4813 35.9999 29.9819 35.9999 28.1673V12.0518C35.9217 12.1104 35.8418 12.1674 35.7597 12.2221L21.0086 22.0566Z" fill="#C4D6FC"/><path d="M1.40977 10.4667L16.1615 20.3016C16.72 20.6739 17.3599 20.86 17.9999 20.86C18.64 20.86 19.28 20.6738 19.8385 20.3016L34.5902 10.4667C35.473 9.87851 36 8.89414 36 7.83171C36 6.00492 34.5138 4.5188 32.6871 4.5188H3.31291C1.4862 4.51887 0 6.00499 0 7.83347C0 8.89414 0.527062 9.87851 1.40977 10.4667Z" fill="currentColor"/></g>
    </symbol>
    <symbol id="products-5-icon" viewBox="0 0 41 31">
      <rect y="1.722" width="31.861" height="29.278" rx="3" fill="#C4D6FC"/><rect x="3.441" y="5.167" width="24.972" height="22.389" rx="3" fill="#3976F4"/><path d="M32.0065 1.34333V1.77644L32.4352 1.83822C34.3808 2.11863 35.8815 3.79331 35.8815 5.81249V7.61307C35.8815 9.03782 36.5058 10.3834 37.5939 11.3037C37.7408 11.4302 37.819 11.6044 37.819 11.7864C37.819 12.1335 37.5359 12.4166 37.1888 12.4166H26.5326C26.1855 12.4166 25.9023 12.1335 25.9023 11.7864C25.9023 11.6024 25.982 11.4289 26.1218 11.3088C27.2152 10.3836 27.8398 9.03827 27.8398 7.61307V5.81249C27.8398 3.79325 29.3399 2.11863 31.2862 1.83822L31.7148 1.77645V1.34333V0.645832C31.7148 0.565156 31.78 0.5 31.8607 0.5C31.9414 0.5 32.0065 0.565156 32.0065 0.645832V1.34333Z" fill="#3976F4" stroke="#fff"/><path d="M34.7238 13.6623L34.8459 13.0625H34.2339H29.4883H28.8762L28.9983 13.6623C29.2695 14.9938 30.4486 16 31.8611 16C33.2735 16 34.4527 14.9938 34.7238 13.6623Z" fill="#3976F4" stroke="#fff"/>
    </symbol>
    <symbol id="products-bg-2" viewBox="0 0 62 74">
      <g opacity=".5" fill="#fff"><path transform="rotate(123.943 22.747 19.618)" d="M0 0H71.659V16.861H0z"/><path transform="rotate(-146.057 49.75 63.735)" d="M49.75 63.735H121.409V80.596H49.75z"/></g>
    </symbol>
    <symbol id="products-bg" viewBox="0 0 112 116">
      <g filter="url(#filter0_d_516_4979)"><circle cx="57.296" cy="33.599" r="23.826" transform="rotate(36.501 57.296 33.599)" fill="#2CB742"/></g><g clip-path="url(#clip0_516_4979)"><path fill-rule="evenodd" clip-rule="evenodd" d="M71.2702 30.5305C70.747 27.0552 68.901 23.9878 66.0685 21.8899C60.2301 17.5695 51.9743 18.7888 47.665 24.6073C46.2874 26.4673 45.4311 28.6444 45.1734 30.9312L39.6227 35.2894L46.3242 37.9766C47.2489 39.9627 48.6628 41.6949 50.4351 43.0072L50.4395 43.0105C56.2772 47.3304 64.5339 46.1112 68.8433 40.2923C70.9318 37.4724 71.7937 34.0057 71.2702 30.5305ZM51.7586 41.2276L51.755 41.2249C50.1758 40.0553 48.9396 38.4857 48.1791 36.686L47.9986 36.258L44.0218 34.6634L47.3071 32.0838L47.3434 31.5969C47.4959 29.5477 48.2253 27.5886 49.4529 25.9314C53.0346 21.0951 59.8966 20.0819 64.7527 23.6755C67.1036 25.4164 68.6379 27.966 69.0728 30.8544C69.5076 33.7429 68.7912 36.6244 67.0554 38.9683C63.4732 43.8048 56.6112 44.8185 51.7586 41.2276ZM61.4506 38.2297C61.2838 37.9018 60.4545 36.301 60.2771 36.0332C60.0998 35.7658 59.9556 35.5913 59.584 35.7248C59.2122 35.8581 58.2653 36.0771 57.9807 36.1387C57.6959 36.2005 57.5253 36.1084 57.3584 35.7804C57.1913 35.4526 56.5448 34.5429 56.1988 32.8962C55.9296 31.6146 56.0377 30.3578 56.0785 29.9795C56.1199 29.6012 56.3682 29.5853 56.593 29.5271C57.1419 29.3846 57.7039 29.2251 57.9223 29.1145C58.1409 29.0038 58.2107 28.817 58.2421 28.6359C58.2737 28.4551 58.7052 26.7651 58.8756 26.0736C59.0411 25.4004 58.7717 25.3085 58.6151 25.1802C58.4665 25.0584 58.2912 24.9262 58.1146 24.7956C57.9382 24.665 57.6027 24.5187 57.1645 24.6034C56.7266 24.688 55.5708 24.8201 54.61 26.1184C53.6492 27.4168 53.6695 29.3728 53.6715 29.6467C53.6735 29.9207 53.436 33.8681 55.2455 36.9751C55.6756 37.7144 56.0486 38.2413 56.3431 38.6474C56.8286 39.3174 57.4264 39.7159 57.9327 39.9855C58.4974 40.2861 59.9707 40.506 60.6473 40.0533C61.3238 39.6003 61.7145 39.0722 61.7298 38.913C61.7452 38.7542 61.6174 38.5576 61.4506 38.2297Z" fill="#fff"/></g>
    </symbol>
    <symbol id="rating-lines" viewBox="0 0 136 5">
      <rect width="24" height="5" rx="2.5" fill="currentColor"/><rect x="28" width="24" height="5" rx="2.5" fill="currentColor"/><rect x="56" width="24" height="5" rx="2.5" fill="currentColor"/><rect x="84" width="24" height="5" rx="2.5" fill="currentColor"/><rect x="112" width="24" height="5" rx="2.5" fill="currentColor"/>
    </symbol>
    <symbol id="request-bg" viewBox="0 0 135 557">
      <path opacity=".3" d="M-247.208 510.486C-238.053 460.482 -200.255 321.293 -142.712 329.495C-66.9046 340.301 -151.226 407.083 -47.9828 426.723C44.2525 444.269 117.357 337.723 86.8069 269.745C47.9488 183.281 -48.9988 149.036 -116.303 187.894C-173.014 220.636 -261.199 184.551 -203.151 137.566C-180.495 119.229 -195.854 74.9147 -169.617 59.7667" stroke="#3976F4" stroke-width="2" stroke-linecap="round" stroke-linejoin="round"/><path opacity=".3" d="M-267.716 410.17C-241.883 372.733 -164.809 293.254 -122.056 306.509C-68.6149 323.077 -69.3402 387.875 -31.1481 387.751C7.044 387.628 57.6681 318.961 27.6292 266.932C4.15121 226.267 -34.3875 206.67 -84.9069 216.721C-132.068 226.103 -184.652 271.966 -216.038 243.419C-234.346 226.766 -238.611 198.576 -235.861 175.062" stroke="#3976F4" stroke-width="2" stroke-linecap="round" stroke-linejoin="round"/>
    </symbol>
    <symbol id="request-icon" viewBox="0 0 103 103">
      <circle cx="51.079" cy="51.079" r="37.279" transform="rotate(-30.662 51.079 51.079)" fill="#6F3FAA"/><path d="M61.4295 34.3583L61.4068 34.32C60.2227 33.1163 58.4502 32.1977 56.5309 31.6771C54.285 31.063 51.8423 30.9843 49.9322 31.6224L49.8968 31.6434C44.2736 33.6695 39.0863 36.7449 34.6104 40.7062L34.575 40.7272C31.8344 43.273 30.3696 48.5826 31.4239 52.0959L31.4466 52.1342C33.0284 56.9338 35.6357 61.3316 39.0876 65.0224L39.1086 65.0578C40.9456 66.9189 44.1942 68.0946 47.1932 68.1904C48.1788 68.2322 49.1654 68.132 50.1225 67.8929L52.1477 71.3089C52.3107 71.5812 52.5511 71.7988 52.8383 71.934C53.1254 72.0692 53.4463 72.1158 53.76 72.068C54.0738 72.0201 54.3661 71.8799 54.5999 71.6652C54.8337 71.4505 54.9982 71.1711 55.0726 70.8626L56.4021 65.2105C57.1759 64.8076 57.945 64.3835 58.6943 63.9392C61.2587 62.4178 63.6738 60.6576 65.9073 58.6821L65.9427 58.6611C68.6727 56.1177 70.1404 50.8062 69.0802 47.2965L69.0592 47.2611C67.4828 42.4573 64.8792 38.0544 61.4295 34.3583ZM65.9558 48.2399C66.6324 50.5378 65.5167 54.5601 63.7258 56.2399C61.3517 58.3408 58.7579 60.1793 55.9893 61.7236C55.9618 61.7377 55.9379 61.7579 55.9194 61.7827C55.9009 61.8075 55.8884 61.8361 55.8827 61.8665L54.8937 65.9613L53.8386 70.3144C53.8225 70.3854 53.7855 70.45 53.7323 70.4997C53.6792 70.5494 53.6123 70.5821 53.5404 70.5933C53.4685 70.6046 53.3948 70.594 53.329 70.563C53.2631 70.5319 53.2081 70.4818 53.1711 70.4191L49.8132 64.7553C49.7863 64.7097 49.7442 64.675 49.6943 64.6573C49.6444 64.6395 49.5899 64.6397 49.5402 64.658C49.0496 64.8109 48.5409 64.898 48.0273 64.9171C45.7207 65.0208 42.8169 64.151 41.4479 62.7699C38.3297 59.4325 35.9733 55.4579 34.5415 51.1207C33.8671 48.8334 35.0011 44.8082 36.7755 43.1343C40.9318 39.4578 45.7475 36.6027 50.9675 34.7203C52.2536 34.3006 54.064 34.3954 55.7084 34.8558C57.0557 35.2252 58.2869 35.8427 59.0546 36.5996C62.1698 39.9349 64.5243 43.9063 65.9558 48.2399Z" fill="#fff"/><path d="M61.0452 51.5492C61.1805 52.651 60.9515 53.7669 60.3933 54.7264C60.1974 54.9926 59.9768 55.2396 59.7342 55.464C59.3626 55.5567 59.0232 55.6702 58.6866 55.7143C55.9345 56.1699 53.1271 56.18 50.3718 55.7441C49.5456 55.6015 48.7303 55.4014 47.9319 55.1455C45.9435 54.4853 44.0534 53.5593 42.3131 52.3928C41.479 51.8468 40.6883 51.2392 39.8933 50.638C39.1698 50.0902 39.1604 49.0791 39.2888 48.2734C39.4309 47.5126 39.7323 46.7904 40.1733 46.1543C40.3229 45.921 40.5494 45.7473 40.8136 45.6635C41.0777 45.5797 41.3629 45.591 41.6196 45.6955C42.8754 46.0955 44.0865 46.6239 45.2337 47.2725C45.581 47.453 45.8454 47.7603 45.9721 48.1305C46.0989 48.5008 46.0782 48.9057 45.9143 49.2611C45.828 49.4518 45.7505 49.6572 45.6918 49.8475C45.6217 50.0142 45.5814 50.192 45.5726 50.3726C45.5707 50.538 45.6071 50.7016 45.6788 50.8506C45.7506 50.9997 45.8558 51.1301 45.9863 51.2317C47.4843 52.4606 49.1234 53.255 50.9593 53.4064C51.5799 53.4563 52.2042 53.4353 52.82 53.3438C53.2481 53.328 53.6649 53.2017 54.0299 52.9773C54.6276 52.5194 54.4185 51.6825 54.65 51.0509C54.7559 50.7603 54.9527 50.5117 55.2112 50.342C55.4697 50.1722 55.776 50.0904 56.0847 50.1086C56.7375 50.1203 57.3953 50.1808 58.0479 50.2324C58.6872 50.2732 59.3239 50.3482 59.9552 50.4571C60.2358 50.4833 60.4984 50.6068 60.6974 50.8063C60.8965 51.0057 61.0195 51.2685 61.0452 51.5492Z" fill="#fff"/><path d="M46.3435 41.1619L45.9659 41.3858C46.0833 41.3082 46.2137 41.2389 46.3435 41.1619Z" fill="#6F3FAA"/><path d="M58.111 46.1334C57.816 46.3083 57.5228 46.1432 57.3395 45.8811C56.9811 45.364 56.6298 44.8388 56.2378 44.3456C55.5732 43.5153 54.7424 42.8332 53.7987 42.3431C52.8223 41.8284 51.7487 41.5245 50.6475 41.4508C49.5462 41.3771 48.4417 41.5354 47.4055 41.9154C46.9352 42.0905 46.4911 42.3299 46.0371 42.5393C45.7482 42.6707 45.3808 42.8646 45.1224 42.5633C45.0749 42.5032 45.0407 42.4336 45.0222 42.3593C45.0037 42.2849 45.0013 42.2075 45.0151 42.1321C45.0289 42.0568 45.0586 41.9852 45.1023 41.9223C45.146 41.8593 45.2026 41.8064 45.2684 41.7671C45.3367 41.7211 45.4076 41.679 45.4808 41.6412C46.7767 40.8876 48.2384 40.4653 49.7365 40.4117C51.2346 40.358 52.7228 40.6746 54.0693 41.3335C55.1428 41.8715 56.0981 42.6186 56.879 43.5309C57.3689 44.1016 57.7984 44.732 58.2333 45.3512C58.2811 45.4089 58.3161 45.476 58.336 45.5482C58.3558 45.6204 58.3601 45.6959 58.3485 45.7699C58.337 45.8439 58.3098 45.9145 58.2689 45.9772C58.2279 46.0399 58.1741 46.0931 58.111 46.1334Z" fill="#fff"/><path d="M55.6981 45.7006C55.7483 45.7892 55.7881 45.8834 55.8166 45.9812C55.8414 46.0817 55.8346 46.1875 55.7972 46.2841C55.7597 46.3806 55.6935 46.4633 55.6074 46.5209C55.5213 46.5785 55.4195 46.6082 55.316 46.6059C55.2124 46.6036 55.1121 46.5694 55.0286 46.5081C54.9255 46.4082 54.8376 46.2939 54.7675 46.1686C54.3832 45.5047 53.8649 44.9281 53.2455 44.4755C53.1095 44.3807 52.9659 44.2864 52.817 44.2033C51.9632 43.7258 50.988 43.5097 50.0125 43.5816C49.4307 43.6365 48.8597 43.7737 48.3165 43.9891C48.0772 44.0831 47.8467 44.1919 47.6109 44.2918C47.5524 44.3226 47.4882 44.3411 47.4222 44.3462C47.3563 44.3512 47.29 44.3426 47.2275 44.321C47.165 44.2994 47.1076 44.2652 47.0588 44.2205C47.01 44.1759 46.9709 44.1216 46.944 44.0613C46.9097 44.0034 46.8881 43.939 46.8805 43.8722C46.8729 43.8055 46.8795 43.7378 46.8999 43.6738C46.9203 43.6097 46.954 43.5507 46.9988 43.5006C47.0436 43.4505 47.0985 43.4105 47.1599 43.3831C48.0459 42.903 49.0257 42.6214 50.0314 42.5577C51.2554 42.4732 52.4749 42.777 53.5163 43.4259C54.1142 43.8108 54.646 44.2899 55.0909 44.8446C55.1536 44.9142 55.2127 44.9869 55.268 45.0626C55.3876 45.2308 55.4985 45.4043 55.6427 45.6138C55.6549 45.6345 55.6736 45.6593 55.6981 45.7006Z" fill="#6F3FAA"/><path d="M53.4385 46.4923C53.4661 46.5769 53.4678 46.668 53.4432 46.7536C53.4187 46.8392 53.369 46.9155 53.3007 46.9726L53.2358 47.0111C53.1428 47.0747 53.0317 47.1062 52.9193 47.1009C52.8068 47.0957 52.6991 47.0539 52.6125 46.982C52.5655 46.9445 52.5236 46.9009 52.4879 46.8525C52.3547 46.6632 52.2083 46.4836 52.0496 46.315C51.7287 45.9736 51.2978 45.7562 50.8325 45.701C50.6119 45.6817 50.3896 45.7002 50.1752 45.7558C49.902 45.8261 49.6676 45.989 49.4043 46.0693C49.2786 46.1166 49.1393 46.1122 49.0169 46.0569C48.8945 46.0017 48.799 45.9003 48.7512 45.7748C48.7086 45.6527 48.7118 45.5193 48.7604 45.3995C48.809 45.2797 48.8996 45.1817 49.0152 45.1239C50.424 44.4203 51.8176 44.4711 52.9359 45.7656C53.0423 45.8843 53.1416 46.0091 53.2333 46.1395C53.3189 46.2462 53.3881 46.3651 53.4385 46.4923Z" fill="#fff"/>
    </symbol>
    <symbol id="service-bg-icon" viewBox="0 0 283 683">
      <path opacity=".3" d="M312.762 34C333.998 93.5567 379.847 266.995 312.76 293.947C224.383 329.452 273.679 205.076 150.254 248.128C39.9884 286.59 27.5043 446.823 102.687 501.047C198.317 570.019 324.045 546.614 372.377 462.901C413.102 392.362 530.535 376.389 497.226 463.101C484.226 496.943 490.888 549.438 472.047 582.073" stroke="#3976F4" stroke-width="2" stroke-linecap="round" stroke-linejoin="round"/><path opacity=".3" d="M397.242 129.303C392.697 185.694 359.103 319.241 304.807 331.552C236.938 346.94 197.421 276.69 156.358 300.575C115.295 324.461 103.468 429.91 168.183 467.273C218.763 496.475 272.463 493.617 320.631 451.373C365.597 411.936 393.716 329.831 445.278 341.063C475.356 347.614 497.482 375.327 509.144 402.366" stroke="#3976F4" stroke-width="2" stroke-linecap="round" stroke-linejoin="round"/><ellipse opacity=".3" cx="232.809" cy="406.477" rx="61.433" ry="41.573" transform="rotate(30 232.809 406.477)" stroke="#3976F4" stroke-width="2" stroke-linecap="round" stroke-linejoin="round"/><circle cx="260.671" cy="398.672" r="39.214" transform="rotate(21.026 260.671 398.672)" fill="#039BE5"/><path d="M253.183 400.626L249.12 409.304C250.027 409.653 250.57 409.414 251.221 409.127L257.039 406.697L263.373 416.542C264.644 418.065 265.966 418.028 267.138 416.282L283.348 391.39L283.35 391.389C284.782 389.195 283.764 387.731 281.963 387.712L242.941 387.66C240.274 387.669 239.811 388.976 241.478 390.29L249.134 396.338L274.193 391.463C275.386 391.199 276.116 391.879 275.163 392.235L253.183 400.626Z" fill="#fff"/>
    </symbol>
    <symbol id="vk-icon" viewBox="0 0 28 16">
      <g clip-path="url(#clip0_190_1459)"><path fill-rule="evenodd" clip-rule="evenodd" d="M26.8715 14.1997C26.8398 14.1313 26.8102 14.0746 26.7827 14.0292C26.328 13.211 25.459 12.2066 24.1763 11.0159L24.1492 10.9886L24.1356 10.9753L24.1219 10.9616H24.1081C23.5259 10.4071 23.1573 10.0343 23.0029 9.84343C22.7204 9.47984 22.6571 9.1118 22.8115 8.7389C22.9206 8.45716 23.3303 7.86215 24.0397 6.95307C24.4129 6.47129 24.7084 6.08516 24.9266 5.79425C26.5006 3.70362 27.183 2.36768 26.9737 1.7859L26.8924 1.64995C26.8377 1.5681 26.6967 1.49322 26.4695 1.42493C26.2418 1.35679 25.9508 1.34552 25.5959 1.39093L21.6659 1.41806C21.6022 1.39552 21.5113 1.39762 21.3929 1.42493C21.2746 1.45225 21.2154 1.46595 21.2154 1.46595L21.147 1.5001L21.0927 1.54112C21.0472 1.56824 20.9972 1.61595 20.9425 1.68414C20.8882 1.75209 20.8427 1.83184 20.8064 1.92271C20.3785 3.02251 19.8921 4.04505 19.3461 4.99028C19.0094 5.55391 18.7003 6.04238 18.418 6.45597C18.136 6.86941 17.8995 7.17403 17.7086 7.36929C17.5174 7.56474 17.3448 7.72133 17.1899 7.83961C17.0352 7.95794 16.917 8.00794 16.8353 7.98965C16.7533 7.97136 16.6761 7.95322 16.603 7.93507C16.4757 7.85322 16.3734 7.74191 16.2962 7.60104C16.2186 7.46017 16.1664 7.28286 16.1392 7.06926C16.112 6.85552 16.0959 6.67167 16.0914 6.51709C16.0871 6.3627 16.0891 6.14433 16.0983 5.86258C16.1078 5.5807 16.112 5.38997 16.112 5.28998C16.112 4.94453 16.1187 4.56962 16.1323 4.16515C16.146 3.76068 16.1572 3.44021 16.1665 3.20412C16.1758 2.96779 16.1801 2.71775 16.1801 2.45416C16.1801 2.19056 16.164 1.98384 16.1323 1.8338C16.1009 1.68395 16.0528 1.53849 15.9894 1.39748C15.9256 1.2566 15.8322 1.14763 15.7096 1.07027C15.5868 0.993007 15.4342 0.931692 15.2525 0.886135C14.7703 0.777115 14.1562 0.71814 13.4101 0.708971C11.718 0.690825 10.6308 0.799989 10.1486 1.03632C9.95757 1.13617 9.78469 1.2726 9.63011 1.44518C9.46631 1.64522 9.44347 1.75438 9.56172 1.77234C10.1076 1.85404 10.4941 2.0495 10.7216 2.35851L10.8036 2.52225C10.8673 2.64039 10.931 2.84955 10.9947 3.14944C11.0583 3.44933 11.0994 3.78107 11.1174 4.14447C11.1629 4.8081 11.1629 5.37617 11.1174 5.84874C11.0719 6.32149 11.0289 6.68953 10.9878 6.95312C10.9468 7.21672 10.8854 7.43032 10.8036 7.59387C10.7216 7.75748 10.6671 7.85747 10.6397 7.89376C10.6124 7.93006 10.5897 7.95293 10.5716 7.96191C10.4534 8.00718 10.3304 8.03024 10.2031 8.03024C10.0756 8.03024 9.92105 7.96654 9.73914 7.83923C9.55727 7.71192 9.36852 7.53705 9.17289 7.31433C8.97726 7.09156 8.75663 6.78026 8.51091 6.38037C8.26538 5.98049 8.01062 5.50787 7.74678 4.96253L7.52849 4.56704C7.39204 4.31261 7.20563 3.94214 6.96908 3.45597C6.73239 2.9696 6.52319 2.49914 6.34132 2.04467C6.26862 1.8538 6.15941 1.70849 6.01387 1.6085L5.94556 1.56748C5.90016 1.53118 5.82727 1.49265 5.72728 1.45158C5.62714 1.41056 5.52266 1.38114 5.4134 1.36305L1.67431 1.39017C1.29223 1.39017 1.03298 1.47665 0.89647 1.64937L0.841839 1.73108C0.814547 1.77659 0.800781 1.84927 0.800781 1.94931C0.800781 2.04931 0.828073 2.17203 0.882705 2.31734C1.42854 3.59904 2.02213 4.83513 2.66346 6.0258C3.3048 7.21648 3.86211 8.1756 4.33506 8.90231C4.8081 9.62954 5.29027 10.3159 5.78157 10.961C6.27288 11.6064 6.59808 12.02 6.7572 12.2017C6.91651 12.3838 7.04164 12.5198 7.13259 12.6107L7.47381 12.9379C7.69215 13.1561 8.01277 13.4174 8.43582 13.7218C8.85896 14.0264 9.32742 14.3263 9.84142 14.6219C10.3555 14.9171 10.9536 15.158 11.636 15.3443C12.3183 15.5307 12.9824 15.6056 13.6283 15.5695H15.1977C15.516 15.542 15.7571 15.442 15.921 15.2694L15.9753 15.2011C16.0118 15.1468 16.046 15.0626 16.0775 14.9491C16.1095 14.8355 16.1253 14.7104 16.1253 14.5742C16.116 14.1835 16.1458 13.8313 16.2139 13.5177C16.2819 13.2043 16.3594 12.968 16.4461 12.8088C16.5328 12.6498 16.6306 12.5156 16.7394 12.4068C16.8485 12.2978 16.9262 12.2318 16.9718 12.209C17.0171 12.1861 17.0533 12.1706 17.0806 12.1613C17.2989 12.0886 17.5558 12.159 17.8518 12.3728C18.1475 12.5864 18.4249 12.8502 18.6843 13.1636C18.9436 13.4773 19.2552 13.8293 19.619 14.2201C19.9831 14.611 20.3014 14.9016 20.5742 15.0927L20.847 15.2563C21.0292 15.3655 21.2658 15.4655 21.557 15.5564C21.8476 15.6472 22.1023 15.6699 22.3209 15.6245L25.8142 15.5701C26.1598 15.5701 26.4286 15.5129 26.6193 15.3995C26.8104 15.2859 26.9239 15.1607 26.9606 15.0246C26.9971 14.8883 26.999 14.7337 26.9675 14.5608C26.9351 14.3884 26.9032 14.2678 26.8715 14.1997Z" fill="currentColor"/></g>
    </symbol></svg>