<svg width="346" height="338" viewBox="0 0 346 338" fill="none" xmlns="http://www.w3.org/2000/svg">
<circle cx="297.069" cy="237.152" r="35.6292" transform="rotate(29.8236 297.069 237.152)" fill="#1E88E5"/>
<g clip-path="url(#clip0_518_5238)">
<path d="M290.763 246.475L292.742 247.609C292.742 247.609 293.378 247.886 293.871 247.731C294.326 247.59 294.641 247.017 294.641 247.017C294.641 247.017 296.124 244.339 297.582 244.655C299.018 244.966 298.886 248.813 299.889 250.897C300.647 252.473 301.705 252.83 301.705 252.83L306.164 255.303C306.164 255.303 308.56 256.487 308.506 254.039C308.503 253.839 308.638 252.326 307.398 248.348C306.1 244.183 306.233 244.815 312.127 242.277C315.716 240.732 317.479 239.542 317.63 238.689C317.775 237.875 316.176 237.195 316.176 237.195L311.183 234.371C311.183 234.371 310.843 234.11 310.474 234.116C310.115 234.124 309.729 234.398 309.729 234.398C309.729 234.398 307.737 236.045 305.663 237.227C301.287 239.721 300.285 239.411 300.057 238.97C299.527 237.942 300.681 236.417 301.35 235.25C303.443 231.6 304.867 230.396 303.462 229.067C302.994 228.626 302.646 228.311 301.27 227.503C299.505 226.466 297.985 225.628 296.896 225.557C296.17 225.509 295.378 225.877 295.625 226.066C295.929 226.298 296.584 226.882 296.671 227.647C296.785 228.634 295.872 230.184 295.872 230.184C295.872 230.184 293.703 234.648 292.418 234.621C291.535 234.601 291.042 233.326 291.025 228.775C291.015 226.446 291.359 224.071 291.359 224.071C291.359 224.071 291.418 223.627 291.266 223.283C291.081 222.867 290.677 222.536 290.677 222.536L285.928 219.852C285.928 219.852 285.206 219.466 284.768 219.625C284.379 219.767 284.267 220.457 284.267 220.457C284.267 220.457 283.004 231.248 284.692 238.022C286.244 244.234 290.763 246.475 290.763 246.475Z" fill="white"/>
</g>
<circle cx="273.996" cy="92.7589" r="36.934" transform="rotate(21.0265 273.996 92.7589)" fill="#039BE5"/>
<g clip-path="url(#clip1_518_5238)">
<path d="M266.943 94.5992L263.116 102.773C263.97 103.101 264.482 102.876 265.095 102.606L270.575 100.317L276.541 109.59C277.738 111.024 278.982 110.989 280.086 109.344L295.354 85.8993L295.356 85.8984C296.705 83.8328 295.746 82.4538 294.05 82.4358L257.297 82.3864C254.784 82.3947 254.348 83.6263 255.918 84.8635L263.13 90.5598L286.732 85.9683C287.855 85.7196 288.543 86.3606 287.645 86.6961L266.943 94.5992Z" fill="white"/>
</g>
<circle cx="54.2925" cy="170.345" r="39.6248" transform="rotate(-30.6623 54.2925 170.345)" fill="#6F3FAA"/>
<path d="M65.2943 152.572L65.2701 152.532C64.0116 151.252 62.1275 150.276 60.0874 149.723C57.7003 149.07 55.1039 148.986 53.0736 149.664L53.036 149.687C47.0591 151.84 41.5454 155.109 36.7878 159.32L36.7502 159.342C33.8372 162.048 32.2803 167.692 33.4009 171.426L33.4251 171.467C35.1063 176.568 37.8777 181.243 41.5468 185.166L41.5691 185.203C43.5216 187.182 46.9746 188.431 50.1623 188.533C51.21 188.577 52.2586 188.471 53.2759 188.217L55.4286 191.848C55.6018 192.137 55.8573 192.368 56.1625 192.512C56.4677 192.656 56.8088 192.705 57.1423 192.655C57.4758 192.604 57.7865 192.455 58.035 192.226C58.2835 191.998 58.4584 191.701 58.5374 191.373L59.9506 185.366C60.773 184.937 61.5906 184.487 62.387 184.014C65.1128 182.397 67.6797 180.526 70.0538 178.427L70.0914 178.404C72.9932 175.701 74.5532 170.055 73.4263 166.325L73.404 166.287C71.7283 161.181 68.961 156.501 65.2943 152.572ZM70.1053 167.327C70.8245 169.77 69.6386 174.045 67.735 175.831C65.2116 178.064 62.4546 180.018 59.5118 181.659C59.4826 181.674 59.4572 181.696 59.4375 181.722C59.4179 181.748 59.4045 181.779 59.3985 181.811L58.3473 186.164L57.2258 190.791C57.2087 190.866 57.1694 190.935 57.1128 190.988C57.0563 191.04 56.9852 191.075 56.9088 191.087C56.8324 191.099 56.7541 191.088 56.6841 191.055C56.6141 191.022 56.5557 190.969 56.5163 190.902L52.9471 184.882C52.9185 184.833 52.8738 184.796 52.8208 184.778C52.7678 184.759 52.7098 184.759 52.657 184.778C52.1355 184.941 51.5948 185.033 51.0489 185.054C48.5971 185.164 45.5107 184.239 44.0556 182.771C40.7412 179.224 38.2365 174.999 36.7146 170.389C35.9979 167.958 37.2031 163.68 39.0892 161.901C43.507 157.993 48.6257 154.958 54.1741 152.957C55.5411 152.511 57.4654 152.612 59.2132 153.101C60.6452 153.494 61.954 154.15 62.7699 154.955C66.0811 158.5 68.5838 162.721 70.1053 167.327Z" fill="white"/>
<path d="M64.8858 170.845C65.0296 172.016 64.7863 173.202 64.1929 174.222C63.9848 174.505 63.7502 174.767 63.4924 175.006C63.0974 175.104 62.7367 175.225 62.3789 175.272C59.4537 175.756 56.4696 175.767 53.541 175.304C52.6628 175.152 51.7962 174.939 50.9475 174.667C48.834 173.966 46.8251 172.981 44.9753 171.742C44.0887 171.161 43.2482 170.515 42.4032 169.876C41.6342 169.294 41.6243 168.219 41.7607 167.363C41.9117 166.554 42.2321 165.787 42.7009 165.111C42.8598 164.862 43.1006 164.678 43.3814 164.589C43.6622 164.5 43.9653 164.512 44.2382 164.623C45.5729 165.048 46.8602 165.61 48.0796 166.299C48.4487 166.491 48.7298 166.818 48.8645 167.211C48.9992 167.605 48.9772 168.035 48.803 168.413C48.7113 168.615 48.6289 168.834 48.5666 169.036C48.492 169.213 48.4491 169.402 48.4399 169.594C48.4378 169.77 48.4765 169.944 48.5527 170.102C48.629 170.261 48.7409 170.399 48.8795 170.507C50.4718 171.814 52.214 172.658 54.1655 172.819C54.8251 172.872 55.4886 172.85 56.1432 172.752C56.5983 172.735 57.0413 172.601 57.4293 172.363C58.0645 171.876 57.8422 170.987 58.0883 170.315C58.2009 170.006 58.4101 169.742 58.6848 169.562C58.9596 169.381 59.2852 169.294 59.6133 169.314C60.3071 169.326 61.0063 169.39 61.7 169.445C62.3795 169.489 63.0563 169.568 63.7273 169.684C64.0255 169.712 64.3046 169.843 64.5162 170.055C64.7278 170.267 64.8586 170.547 64.8858 170.845Z" fill="white"/>
<path d="M49.2591 159.804L48.8577 160.042C48.9826 159.96 49.1211 159.886 49.2591 159.804Z" fill="#6F3FAA"/>
<path d="M61.767 165.088C61.4534 165.274 61.1418 165.099 60.947 164.82C60.566 164.271 60.1926 163.712 59.7759 163.188C59.0696 162.306 58.1865 161.581 57.1834 161.06C56.1455 160.513 55.0044 160.189 53.8339 160.111C52.6633 160.033 51.4894 160.201 50.3879 160.605C49.8881 160.791 49.416 161.046 48.9335 161.268C48.6264 161.408 48.2359 161.614 47.9613 161.294C47.9107 161.23 47.8744 161.156 47.8547 161.077C47.8351 160.998 47.8325 160.915 47.8472 160.835C47.8618 160.755 47.8935 160.679 47.9399 160.612C47.9863 160.545 48.0465 160.489 48.1164 160.447C48.189 160.398 48.2644 160.354 48.3421 160.313C49.7195 159.513 51.2732 159.064 52.8656 159.007C54.4579 158.95 56.0397 159.286 57.471 159.986C58.6121 160.558 59.6275 161.352 60.4575 162.322C60.9782 162.929 61.4347 163.599 61.897 164.257C61.9478 164.318 61.985 164.39 62.0061 164.466C62.0272 164.543 62.0318 164.623 62.0195 164.702C62.0072 164.781 61.9783 164.856 61.9348 164.922C61.8912 164.989 61.834 165.045 61.767 165.088Z" fill="white"/>
<path d="M59.2023 164.628C59.2557 164.722 59.298 164.823 59.3282 164.927C59.3546 165.033 59.3474 165.146 59.3076 165.248C59.2678 165.351 59.1974 165.439 59.1058 165.5C59.0143 165.561 58.9062 165.593 58.7961 165.591C58.6861 165.588 58.5794 165.552 58.4907 165.487C58.3811 165.38 58.2876 165.259 58.2132 165.126C57.8047 164.42 57.2537 163.807 56.5954 163.326C56.4509 163.225 56.2982 163.125 56.1399 163.037C55.2324 162.529 54.1959 162.3 53.159 162.376C52.5406 162.434 51.9336 162.58 51.3563 162.809C51.1019 162.909 50.8569 163.025 50.6063 163.131C50.5441 163.164 50.4758 163.183 50.4057 163.189C50.3356 163.194 50.2652 163.185 50.1987 163.162C50.1323 163.139 50.0713 163.103 50.0194 163.055C49.9676 163.008 49.9261 162.95 49.8974 162.886C49.861 162.824 49.838 162.756 49.8299 162.685C49.8219 162.614 49.8289 162.542 49.8506 162.474C49.8722 162.406 49.9081 162.343 49.9557 162.29C50.0033 162.237 50.0616 162.194 50.1269 162.165C51.0686 161.655 52.1101 161.355 53.1791 161.288C54.4801 161.198 55.7763 161.521 56.8832 162.211C57.5188 162.62 58.084 163.129 58.5569 163.718C58.6236 163.792 58.6864 163.87 58.7451 163.95C58.8723 164.129 58.9901 164.313 59.1434 164.536C59.1564 164.558 59.1762 164.584 59.2023 164.628Z" fill="#6F3FAA"/>
<path d="M56.8004 165.47C56.8298 165.56 56.8315 165.657 56.8054 165.748C56.7793 165.839 56.7265 165.92 56.6539 165.98L56.5849 166.021C56.4862 166.089 56.368 166.122 56.2485 166.117C56.129 166.111 56.0145 166.067 55.9225 165.99C55.8725 165.95 55.8279 165.904 55.79 165.853C55.6484 165.651 55.4928 165.461 55.3242 165.281C54.9831 164.918 54.525 164.687 54.0304 164.629C53.7959 164.608 53.5597 164.628 53.3318 164.687C53.0414 164.762 52.7923 164.935 52.5124 165.02C52.3788 165.071 52.2308 165.066 52.1007 165.007C51.9706 164.948 51.869 164.841 51.8183 164.707C51.7729 164.577 51.7764 164.436 51.828 164.308C51.8797 164.181 51.9759 164.077 52.0988 164.015C53.5962 163.267 55.0775 163.321 56.2662 164.697C56.3793 164.824 56.4849 164.956 56.5823 165.095C56.6733 165.208 56.7468 165.335 56.8004 165.47Z" fill="white"/>
<g filter="url(#filter0_d_518_5238)">
<circle cx="116.437" cy="47.8241" r="32.0473" transform="rotate(36.5014 116.437 47.8241)" fill="#2CB742"/>
</g>
<g clip-path="url(#clip2_518_5238)">
<path fill-rule="evenodd" clip-rule="evenodd" d="M135.234 43.696C134.53 39.0217 132.047 34.8958 128.237 32.0741C120.384 26.263 109.28 27.903 103.484 35.7291C101.631 38.2308 100.479 41.1591 100.132 44.235L92.6665 50.0969L101.68 53.7113C102.924 56.3827 104.826 58.7126 107.21 60.4777L107.215 60.4821C115.067 66.2925 126.173 64.6526 131.969 56.826C134.778 53.0331 135.938 48.3703 135.234 43.696ZM108.99 58.084L108.985 58.0804C106.861 56.5072 105.198 54.3961 104.175 51.9754L103.932 51.3997L98.5834 49.2549L103.002 45.7852L103.051 45.1303C103.256 42.3741 104.237 39.7391 105.888 37.51C110.706 31.0051 119.936 29.6423 126.467 34.4757C129.629 36.8173 131.693 40.2466 132.278 44.1317C132.863 48.0169 131.899 51.8925 129.565 55.0452C124.746 61.5504 115.517 62.9139 108.99 58.084ZM122.026 54.0518C121.801 53.6107 120.686 51.4575 120.447 51.0974C120.209 50.7377 120.015 50.503 119.515 50.6826C119.015 50.8619 117.741 51.1564 117.359 51.2393C116.976 51.3223 116.746 51.1986 116.522 50.7574C116.297 50.3164 115.427 49.0929 114.962 46.8779C114.6 45.1542 114.745 43.4637 114.8 42.9549C114.856 42.4461 115.19 42.4248 115.492 42.3465C116.23 42.1547 116.986 41.9402 117.28 41.7914C117.574 41.6425 117.668 41.3912 117.71 41.1478C117.753 40.9045 118.333 38.6314 118.562 37.7014C118.785 36.7959 118.423 36.6723 118.212 36.4996C118.012 36.3358 117.776 36.158 117.539 35.9823C117.302 35.8068 116.85 35.61 116.261 35.7238C115.672 35.8376 114.117 36.0154 112.825 37.7617C111.533 39.5079 111.56 42.1389 111.563 42.5073C111.565 42.8758 111.246 48.1853 113.68 52.3643C114.258 53.3587 114.76 54.0674 115.156 54.6136C115.809 55.5147 116.613 56.0507 117.294 56.4134C118.054 56.8176 120.035 57.1134 120.945 56.5045C121.855 55.8952 122.381 55.1849 122.401 54.9708C122.422 54.7572 122.25 54.4928 122.026 54.0518Z" fill="white"/>
</g>
<circle cx="136.931" cy="288.625" r="36.2839" transform="rotate(-29.2016 136.931 288.625)" fill="#3976F4"/>
<g clip-path="url(#clip3_518_5238)">
<path d="M127.826 272.349C118.83 277.377 115.316 288.213 119.976 296.552C122.631 301.302 127.366 304.216 132.612 304.916L135.654 310.202C135.818 310.488 136.229 310.493 136.4 310.21L139.872 304.478C141.515 304.06 143.141 303.419 144.704 302.546C153.7 297.518 157.215 286.682 152.554 278.343C147.893 270.005 136.822 267.322 127.826 272.349ZM140.222 291.623L134.715 289.945C134.392 289.847 134.043 289.976 133.862 290.26L129.591 296.965C129.429 297.22 129.034 297.05 129.107 296.756L132.049 285.069C132.134 284.733 132.483 284.538 132.813 284.642L138.358 286.391C138.683 286.494 139.037 286.364 139.219 286.075L143.396 279.45C143.558 279.194 143.954 279.364 143.88 279.658L140.98 291.195C140.896 291.528 140.551 291.723 140.222 291.623Z" fill="white"/>
</g>
<defs>
<filter id="filter0_d_518_5238" x="20.2816" y="0.233814" width="192.311" height="192.311" filterUnits="userSpaceOnUse" color-interpolation-filters="sRGB">
<feFlood flood-opacity="0" result="BackgroundImageFix"/>
<feColorMatrix in="SourceAlpha" type="matrix" values="0 0 0 0 0 0 0 0 0 0 0 0 0 0 0 0 0 0 127 0" result="hardAlpha"/>
<feOffset dy="48.5653"/>
<feGaussianBlur stdDeviation="32.0531"/>
<feComposite in2="hardAlpha" operator="out"/>
<feColorMatrix type="matrix" values="0 0 0 0 0.503531 0 0 0 0 0.507706 0 0 0 0 0.545833 0 0 0 0.08 0"/>
<feBlend mode="normal" in2="BackgroundImageFix" result="effect1_dropShadow_518_5238"/>
<feBlend mode="normal" in="SourceGraphic" in2="effect1_dropShadow_518_5238" result="shape"/>
</filter>
<clipPath id="clip0_518_5238">
<rect width="38.1741" height="38.1741" fill="white" transform="translate(289.423 211.257) rotate(29.8236)"/>
</clipPath>
<clipPath id="clip1_518_5238">
<rect width="38.6928" height="38.6928" fill="white" transform="translate(261.551 66.3067) rotate(21.0265)"/>
</clipPath>
<clipPath id="clip2_518_5238">
<rect width="38.1515" height="38.0228" fill="white" transform="translate(113.505 19.7178) rotate(36.5014)"/>
</clipPath>
<clipPath id="clip3_518_5238">
<rect width="46.6507" height="46.6507" fill="white" transform="translate(105.185 279.644) rotate(-29.2016)"/>
</clipPath>
</defs>
</svg>
