<svg width="52" height="52" viewBox="0 0 52 52" fill="none" xmlns="http://www.w3.org/2000/svg">
<circle cx="26.3513" cy="25.7632" r="25" transform="rotate(1.03 26.3513 25.7632)" fill="#039BE5"/>
<g clip-path="url(#clip0_565_820)">
<path d="M22.2911 28.5664L21.7484 34.6513C22.3681 34.6624 22.6413 34.401 22.969 34.0871L25.9245 31.3625L31.8659 35.8799C32.959 36.5151 33.7428 36.205 34.0641 34.9033L38.349 16.4563L38.3501 16.4552C38.7297 14.8292 37.8007 14.174 36.7176 14.5551L13.3283 23.031C11.7319 23.6178 11.74 24.5021 13.0247 24.9257L18.9303 26.8797L32.8802 18.4961C33.5371 18.0779 34.1231 18.3263 33.6299 18.7475L22.2911 28.5664Z" fill="white"/>
</g>
<defs>
<clipPath id="clip0_565_820">
<rect width="26.1905" height="26.1905" fill="white" transform="translate(12.3123 11.8184) rotate(1.03)"/>
</clipPath>
</defs>
</svg>
