<svg width="50" height="78" viewBox="0 0 50 78" fill="none" xmlns="http://www.w3.org/2000/svg">
<circle cx="38.8605" cy="38.8605" r="28.5573" transform="rotate(-29.2016 38.8605 38.8605)" fill="#3976F4"/>
<g clip-path="url(#clip0_565_476)">
<path d="M31.6943 26.0507C24.6141 30.008 21.8479 38.5364 25.516 45.0993C27.6056 48.8379 31.3321 51.1313 35.4612 51.682L37.8549 55.8429C37.984 56.0677 38.3075 56.0716 38.4419 55.8492L41.1748 51.3379C42.4682 51.0082 43.7479 50.5042 44.9779 49.8167C52.0581 45.8594 54.8244 37.331 51.1563 30.7681C47.4881 24.2052 38.7745 22.0935 31.6943 26.0507ZM41.4502 41.2202L37.1159 39.8997C36.8618 39.8221 36.5873 39.9234 36.4446 40.1474L33.0833 45.4243C32.9553 45.625 32.6446 45.4912 32.7027 45.2602L35.018 36.0613C35.0846 35.7974 35.3593 35.6439 35.6188 35.7259L39.9829 37.1018C40.2395 37.183 40.5177 37.081 40.6612 36.8531L43.9484 31.6395C44.0759 31.4378 44.3878 31.5714 44.3296 31.8029L42.0467 40.8831C41.9807 41.145 41.709 41.2986 41.4502 41.2202Z" fill="white"/>
</g>
<defs>
<clipPath id="clip0_565_476">
<rect width="36.7165" height="36.7165" fill="white" transform="translate(13.8744 31.792) rotate(-29.2016)"/>
</clipPath>
</defs>
</svg>
