<svg width="36" height="36" viewBox="0 0 36 36" fill="none" xmlns="http://www.w3.org/2000/svg">
<g clip-path="url(#clip0_565_1326)">
<path d="M11.5714 27.6429V23.5286L4.53536 19.7769C4.11786 19.5529 3.85734 19.1176 3.85734 18.6438C3.85734 18.1701 4.11786 17.7347 4.53536 17.5108L11.5714 13.7571V9.64286C11.5736 7.5135 13.2992 5.78784 15.4286 5.78571H20.5714V2.57143C20.5714 1.15127 19.4202 0 18 0H17.7544L16.3588 2.79129C16.0339 3.44621 15.3651 3.85954 14.634 3.85714H5.93743C5.20637 3.85954 4.5375 3.44621 4.21264 2.79129L2.817 0H2.57143C1.15127 0 0 1.15127 0 2.57143V33.4286C0 34.8487 1.15127 36 2.57143 36H18C19.4202 36 20.5714 34.8487 20.5714 33.4286V31.5H15.4286C13.2992 31.4979 11.5736 29.7722 11.5714 27.6429ZM16.0714 34.0714C16.0714 34.4265 15.7836 34.7143 15.4286 34.7143H5.14286C4.78782 34.7143 4.5 34.4265 4.5 34.0714C4.5 33.7164 4.78782 33.4286 5.14286 33.4286H15.4286C15.7836 33.4286 16.0714 33.7164 16.0714 34.0714Z" fill="currentColor"/>
<path d="M33.4303 7.07129H15.4303C14.0101 7.07129 12.8588 8.22256 12.8588 9.64272V14.1427C12.859 14.3802 12.7283 14.5985 12.5188 14.7104L5.14453 18.6427L12.5207 22.5738C12.7299 22.6864 12.8599 22.9052 12.8588 23.1427V27.6427C12.8588 29.0629 14.0101 30.2142 15.4303 30.2142H33.4303C34.8504 30.2142 36.0017 29.0629 36.0017 27.6427V9.64272C36.0017 8.22256 34.8504 7.07129 33.4303 7.07129ZM32.5303 23.9142C32.2886 24.2393 31.9068 24.4302 31.5017 24.4284H27.6446C27.6446 26.2036 26.2055 27.6427 24.4303 27.6427C22.6551 27.6427 21.216 26.2036 21.216 24.4284H17.3588C16.9541 24.4284 16.5731 24.2379 16.3303 23.9142C16.0874 23.5904 16.0112 23.1712 16.1245 22.7827L17.7278 18.0204C17.9102 17.3868 18.0024 16.7306 18.0017 16.0713C18.0017 12.5209 20.8799 9.64272 24.4303 9.64272C27.9807 9.64272 30.8588 12.5209 30.8588 16.0713C30.8587 16.7394 30.9535 17.4041 31.1404 18.0455L32.7283 22.757L32.736 22.7827C32.8511 23.1711 32.7747 23.5911 32.5303 23.9142Z" fill="#C4D6FC"/>
<path d="M24.4286 26.357C25.4937 26.357 26.3571 25.4936 26.3571 24.4285H22.5C22.5 25.4936 23.3635 26.357 24.4286 26.357Z" fill="currentColor"/>
<path d="M29.5697 16.0716C29.5697 13.2312 27.2671 10.9287 24.4268 10.9287C21.5865 10.9287 19.2839 13.2312 19.2839 16.0716C19.2841 16.8617 19.1718 17.6479 18.9503 18.4064L17.3477 23.1681L21.8181 23.1604C21.8854 23.1494 21.954 23.1494 22.0212 23.1604L26.9487 23.152C26.9678 23.151 26.9869 23.151 27.006 23.152L31.4982 23.143L29.9117 18.4315C29.6854 17.6652 29.5703 16.8705 29.5697 16.0716Z" fill="currentColor"/>
<path d="M5.93691 2.57143H14.6335C14.8772 2.57221 15.1001 2.43432 15.2082 2.21593L16.3165 0H4.25391L5.36219 2.21593C5.47031 2.43432 5.69322 2.57221 5.93691 2.57143Z" fill="currentColor"/>
</g>
<defs>
<clipPath id="clip0_565_1326">
<rect width="36" height="36" fill="white"/>
</clipPath>
</defs>
</svg>
