<svg width="36" height="36" viewBox="0 0 36 36" fill="none" xmlns="http://www.w3.org/2000/svg">
<g clip-path="url(#clip0_565_1336)">
<path d="M21.0086 22.0566C20.113 22.6537 19.0726 22.9693 18 22.9693C16.9275 22.9693 15.8871 22.6537 14.9915 22.0566L0.239695 12.2218C0.157852 12.1672 0.0781172 12.1103 0 12.0518V28.1673C0 30.0149 1.49941 31.4813 3.31404 31.4813H32.6859C34.5336 31.4813 35.9999 29.9819 35.9999 28.1673V12.0518C35.9217 12.1104 35.8418 12.1674 35.7597 12.2221L21.0086 22.0566Z" fill="#C4D6FC"/>
<path d="M1.40977 10.4667L16.1615 20.3016C16.72 20.6739 17.3599 20.86 17.9999 20.86C18.64 20.86 19.28 20.6738 19.8385 20.3016L34.5902 10.4667C35.473 9.87851 36 8.89414 36 7.83171C36 6.00492 34.5138 4.5188 32.6871 4.5188H3.31291C1.4862 4.51887 0 6.00499 0 7.83347C0 8.89414 0.527062 9.87851 1.40977 10.4667Z" fill="currentColor"/>
</g>
<defs>
<clipPath id="clip0_565_1336">
<rect width="36" height="36" fill="white"/>
</clipPath>
</defs>
</svg>
